<?xml version="1.0" encoding="utf-8"?>
<!-- Generator: Adobe Illustrator 24.0.2, SVG Export Plug-In . SVG Version: 6.00 Build 0)  -->
<svg version="1.1" id="Layer_1" xmlns="http://www.w3.org/2000/svg" xmlns:xlink="http://www.w3.org/1999/xlink" x="0px" y="0px"
	 viewBox="0 0 400 400" style="enable-background:new 0 0 400 400;" xml:space="preserve">
<style type="text/css">
	.st0{fill:#F26922;}
	.st1{fill-rule:evenodd;clip-rule:evenodd;fill:#FFFFFF;}
</style>
<rect class="st0" width="400" height="400"/>
<g>
	<path id="path8" class="st1" d="M311.1,196.9C281,219.1,237.3,231,199.7,231c-52.7,0-100.2-19.5-136.1-51.9c-2.8-2.5-0.3-6,3.1-4.1
		c38.7,22.6,86.7,36.1,136.2,36.1c33.4,0,70.1-6.9,103.9-21.2C311.8,187.7,316.1,193.2,311.1,196.9"/>
	<path id="path10" class="st1" d="M323.6,182.6c-3.9-4.9-25.5-2.3-35.2-1.2c-3,0.4-3.4-2.2-0.8-4.1c17.2-12.1,45.5-8.6,48.8-4.6
		s-0.9,32.4-17,45.9c-2.5,2-4.8,1-3.8-1.7C319.3,207.8,327.5,187.5,323.6,182.6"/>
</g>
</svg>
