<svg id="Layer_1" data-name="Layer 1" xmlns="http://www.w3.org/2000/svg" viewBox="0 0 400 400"><defs><style>.cls-1{fill:#fff;}.cls-2{fill:#010101;}</style></defs><title>apple</title><rect class="cls-1" width="400" height="400"/><path class="cls-2" d="M272.54,159.38c-1.11.85-20.56,11.82-20.56,36.2,0,28.2,24.76,38.17,25.5,38.42a100,100,0,0,1-13.06,27c-8.13,11.71-16.62,23.39-29.55,23.39s-16.24-7.5-31.16-7.5c-14.54,0-19.7,7.75-31.52,7.75s-20.07-10.83-29.55-24.13c-11-15.62-19.86-39.89-19.86-62.92,0-36.94,24-56.53,47.66-56.53,12.56,0,23,8.25,30.91,8.25,7.51,0,19.22-8.74,33.51-8.74C240.27,140.53,259.73,141,272.54,159.38Zm-44.47-34.49c5.91-7,10.09-16.74,10.09-26.47a18,18,0,0,0-.36-3.82c-9.61.36-21.05,6.4-28,14.4-5.42,6.16-10.47,15.89-10.47,25.75a17.77,17.77,0,0,0,.36,3.44,15.29,15.29,0,0,0,2.58.25C211,138.44,221.8,132.66,228.07,124.89Z"/></svg>