<?xml version="1.0" encoding="utf-8"?>
<!-- Generator: Adobe Illustrator 24.0.2, SVG Export Plug-In . SVG Version: 6.00 Build 0)  -->
<svg version="1.1" id="Layer_1" xmlns="http://www.w3.org/2000/svg" xmlns:xlink="http://www.w3.org/1999/xlink" x="0px" y="0px"
	 viewBox="0 0 400 400.3" style="enable-background:new 0 0 400 400.3;" xml:space="preserve">
<style type="text/css">
	.st0{fill:#0054D4;}
	.st1{fill:url(#Vector_1_);}
	.st2{fill:#FFFFFF;}
</style>
<rect y="0" class="st0" width="400" height="400"/>
<g id="Group_2">
	<g id="Group_3">
		
			<linearGradient id="Vector_1_" gradientUnits="userSpaceOnUse" x1="186.3959" y1="581.7861" x2="135.6773" y2="669.6329" gradientTransform="matrix(1 0 0 1 0 -389.4839)">
			<stop  offset="0" style="stop-color:#FFFFFF;stop-opacity:0.4"/>
			<stop  offset="0.9228" style="stop-color:#FFFFFF"/>
		</linearGradient>
		<path id="Vector" class="st1" d="M160.1,177.6c-2.9-3.2-7.4-2.9-9.5,0.9l-47.9,96.2c-1.8,3.8,0.9,8.3,5,8.3h66.9
			c2.1,0,4.1-1.2,5-3.2C194.1,249.9,185.3,204.5,160.1,177.6z"/>
		<path id="Vector_2" class="st2" d="M195.4,89.9c-26.9,42.6-25.2,89.7-7.4,125.2s31.4,62.4,32.2,64.6c0.9,2.1,2.9,3.2,5,3.2h66.9
			c4.1,0,7.2-4.4,5-8.3c0,0-90-180-92.4-184.4C203.1,86.1,198.1,85.8,195.4,89.9z"/>
	</g>
</g>
</svg>
