<?xml version="1.0" encoding="utf-8"?>
<!-- Generator: Adobe Illustrator 24.0.2, SVG Export Plug-In . SVG Version: 6.00 Build 0)  -->
<svg version="1.1" id="Layer_1" xmlns="http://www.w3.org/2000/svg" xmlns:xlink="http://www.w3.org/1999/xlink" x="0px" y="0px"
	 viewBox="0 0 400 400" style="enable-background:new 0 0 400 400;" xml:space="preserve">
<style type="text/css">
	.st0{fill:#00A8E0;}
	.st1{fill:#FFFFFF;}
</style>
<rect class="st0" width="400" height="400"/>
<path id="path9" class="st1" d="M123.3,298.7c21.2,16.4,47.8,26.3,76.7,26.3c31.6,0,60.4-11.7,82.3-31c0.3-0.2,0.1-0.4-0.1-0.2
	c-9.9,6.6-38,21-82.2,21c-38.5,0-62.8-8.6-76.5-16.2C123.2,298.4,123.2,298.6,123.3,298.7 M208.5,305.1c30.8,0,64.6-8.4,84.8-25
	c5.5-4.5,10.8-10.5,15.5-18.6c2.7-4.7,5.4-10.2,7.5-15.6c0.1-0.3-0.1-0.4-0.3-0.1c-18.8,27.7-73.2,44.9-129.5,44.9
	c-39.7,0-82.5-12.7-99.2-37c-0.2-0.2-0.3-0.1-0.2,0.1C102.7,287,150,305.1,208.5,305.1 M174.9,250.1c-64,0-94.1-29.8-99.6-50.2
	c-0.1-0.3-0.3-0.2-0.3,0c0,6.8,0.7,15.7,1.9,21.6c0.6,2.9,2.9,7.3,6.3,10.9c15.5,16.2,54.1,38.8,121,38.8
	c91.1,0,112-30.4,116.2-40.4c3-7.1,4.6-20.1,4.6-30.9c0-2.6-0.1-4.7-0.2-6.8c0-0.3-0.2-0.4-0.3,0C320,217.6,242.2,250.1,174.9,250.1
	 M87.1,146.4c-3.7,7.3-7.7,19.6-8.9,25.9c-0.5,2.7-0.3,4,0.7,6.1c7.7,16.3,46.5,42.3,136.9,42.3c55.2,0,98.1-13.6,105-38.3
	c1.3-4.6,1.3-9.4-0.3-15.9c-1.8-7.2-5.3-15.7-8.2-21.6c-0.1-0.2-0.3-0.2-0.2,0.1c1.1,32.5-89.4,53.4-135.1,53.4
	c-49.5,0-90.7-19.7-90.7-44.6c0-2.4,0.5-4.8,1.1-7.3C87.3,146.2,87.2,146.2,87.1,146.4 M282.5,106.5c0.5,0.8,0.8,1.7,0.8,2.9
	c0,13.9-42.5,38.5-110.1,38.5c-49.7,0-59-18.4-59-30.2c0-4.2,1.6-8.5,5.1-12.8c0.2-0.3,0-0.4-0.2-0.2c-6.5,5.5-12.4,11.6-17.6,18.3
	c-2.5,3.1-4,5.9-4,7.6c0,24.3,60.9,41.9,117.9,41.9c60.7,0,87.8-19.8,87.8-37.2c0-6.2-2.4-9.9-8.6-16.9c-4-4.6-7.8-8.3-11.9-12
	C282.5,106.2,282.4,106.3,282.5,106.5 M263.9,92.6C245.2,81.4,223.5,75,200,75c-23.6,0-46,6.6-64.8,18.1c-5.6,3.5-8.8,6.3-8.8,9.8
	c0,10.5,24.6,21.9,68.3,21.9c43.2,0,76.8-12.4,76.8-24.4C271.5,97.6,269,95.6,263.9,92.6"/>
</svg>
