<svg xmlns="http://www.w3.org/2000/svg" viewBox="0 0 960 832.72"><defs><clipPath id="clippath"><path class="cls-11" transform="rotate(180 489.06 421.83)" d="M294.97 275.43h388.17v292.79H294.97z"></path></clipPath><pattern id="_10_dpi_30_2" x="0" y="0" width="28.8" height="28.8" patternTransform="rotate(-2.19 -123860.639 190644.683) scale(.42)" patternUnits="userSpaceOnUse"><path style="fill:none" d="M0 0h28.8v28.8H0z"></path><path class="cls-15" d="M28.8 31.39a2.59 2.59 0 1 0-.001-5.181 2.59 2.59 0 0 0 .001 5.181ZM14.4 31.39a2.59 2.59 0 1 0-.001-5.181 2.59 2.59 0 0 0 .001 5.181ZM28.8 16.99a2.59 2.59 0 1 0-.001-5.181 2.59 2.59 0 0 0 .001 5.181ZM14.4 16.99a2.59 2.59 0 1 0-.001-5.181 2.59 2.59 0 0 0 .001 5.181ZM7.2 24.19a2.59 2.59 0 1 0-.001-5.181A2.59 2.59 0 0 0 7.2 24.19ZM21.6 24.19a2.59 2.59 0 1 0-.001-5.181 2.59 2.59 0 0 0 .001 5.181ZM7.2 9.79a2.59 2.59 0 1 0-.001-5.181A2.59 2.59 0 0 0 7.2 9.79ZM21.6 9.79a2.59 2.59 0 1 0-.001-5.181A2.59 2.59 0 0 0 21.6 9.79ZM0 31.39a2.59 2.59 0 1 0-.001-5.181A2.59 2.59 0 0 0 0 31.39ZM0 16.99a2.59 2.59 0 1 0-.001-5.181A2.59 2.59 0 0 0 0 16.99ZM28.8 2.59a2.59 2.59 0 1 0-.001-5.181A2.59 2.59 0 0 0 28.8 2.59ZM14.4 2.59a2.59 2.59 0 1 0-.001-5.181A2.59 2.59 0 0 0 14.4 2.59ZM0 2.59a2.59 2.59 0 1 0-.001-5.181A2.59 2.59 0 0 0 0 2.59Z"></path></pattern><style>.cls-2,.cls-3,.cls-5,.cls-6{fill:none}.cls-7{fill:url(#_10_dpi_30_2)}.cls-2{stroke-miterlimit:10}.cls-2,.cls-3,.cls-5,.cls-6,.cls-8{stroke-linecap:round}.cls-2,.cls-3,.cls-6,.cls-8{stroke-width:3px}.cls-2,.cls-6,.cls-8{stroke:#244942}.cls-3{stroke:#2dc653}.cls-3,.cls-5,.cls-6,.cls-8{stroke-linejoin:round}.cls-5{stroke:#acecbd}.cls-10{fill:#f3fcf5}.cls-11,.cls-8{fill:#fff}.cls-12{fill:#def7e5}.cls-13{fill:#acecbd}.cls-14{fill:#244942}.cls-15{fill:#2dc653}.cls-5{stroke-width:2px}</style></defs><ellipse class="cls-13" cx="192.58" cy="632.23" rx="29.9" ry="74.17" transform="rotate(-45 192.579 632.231)"></ellipse><path class="cls-11" d="m203.11 678.35 50.36-72.6s12.88-7.15 19.85-14.12c6.97-6.97 10.46-31.87 10.46-31.87l-34.75-34.75-77.6 128.36 31.67 24.98Z"></path><path class="cls-11" d="m203.11 678.35 50.36-72.6s12.88-7.15 19.85-14.12c6.97-6.97 17.46-31.87 17.46-31.87l-46.2-39.2"></path><path class="cls-11" d="M244.23 577.2c7.26-12.57 8.64-24.85 8.64-39.22 0 0 31.16-15.21 36.39-20.44 10.86-10.86.39-17.53.39-17.53s-60.61 21.2-65.16 23.23c0 0-16.51 20.39-18.36 52.52-.95 16.44-57.58 49.6-57.58 49.6l10.4 14.17 12.48 13.83 13.06 11.86 41.28-76.45 18.46-11.57Z"></path><path class="cls-7" d="m156.96 620.23-7.41 4.57-.99.58L167 649l18.54 17.22 17.57 12.14 10.85-16.15s-33.96-7.07-57.01-41.97Z"></path><path class="cls-6" d="m203.11 678.35 50.36-72.6s12.88-7.15 19.85-14.12"></path><path class="cls-12" d="M832.27 368.67c0-62.59-63.33-97.89-113.58-63.31-7.67-20.25-24.49-28.35-39.7-23.73 7.5-43.37-12.19-87.45-77.1-78.92-28.95-24.82-74.02-31.51-110.04-3.44-30.76 23.97-28.85 61.98-25.85 77.74-27.28 3.51-61.7 34.55-60.27 73.36 1.5 40.83 24.96 88.33 101.54 72.66 32.67 59.08 151.33 64.57 197.84 3.5 49.5 35.45 127.16 18.57 127.16-57.86Z"></path><path class="cls-12" d="M554.32 470.06c0-62.59-63.33-97.89-113.58-63.31-7.67-20.25-24.49-28.35-39.7-23.73 7.5-43.37-12.19-87.45-77.1-78.92-28.95-24.82-74.02-31.51-110.04-3.44-30.76 23.97-28.85 61.98-25.85 77.74-27.28 3.51-61.7 34.55-60.27 73.36 1.5 40.83 24.96 88.33 101.54 72.66 32.67 59.08 151.33 64.57 197.84 3.5 49.5 35.45 127.16 18.57 127.16-57.86Z"></path><path class="cls-11" transform="rotate(180 489.06 421.83)" d="M294.97 275.43h388.17v292.79H294.97z"></path><g style="clip-path:url(#clippath)"><path class="cls-10" transform="rotate(180 354.4 416.825)" d="M337.02 245.76h34.76v342.13h-34.76z"></path><path class="cls-10" transform="rotate(180 421.73 416.825)" d="M404.35 245.76h34.76v342.13h-34.76z"></path><path class="cls-10" transform="rotate(180 489.06 416.825)" d="M471.68 245.76h34.76v342.13h-34.76z"></path><path class="cls-10" transform="rotate(180 556.39 416.825)" d="M539.01 245.76h34.76v342.13h-34.76z"></path><path class="cls-10" transform="rotate(180 623.72 416.825)" d="M606.34 245.76h34.76v342.13h-34.76z"></path><path class="cls-5" d="m483.78 317.1-12.18 12.17M505.86 400.05l-19.71 19.71M505.86 415.57l-4.73 4.73M498.32 317.1l-26.72 26.71M506.13 324.9l-34.62 34.62M506.13 339.73l-34.62 34.62M506.13 354.55l-34.62 34.62M506.13 369.38 471.51 404M506.13 384.2l-34.62 34.62M550.86 317.1l-12.18 12.17M572.94 428.75l-19.71 19.71M572.94 444.26l-4.73 4.74M565.4 317.1l-26.72 26.71M573.21 324.9l-34.62 34.62M573.21 339.73l-34.62 34.62M573.21 354.55l-34.62 34.62M573.21 369.38 538.59 404M573.21 384.2l-34.62 34.62M573.21 398.85l-34.62 34.63M573.21 413.51l-34.62 34.62M619.14 317.1l-12.18 12.17M641.22 503.25l-19.71 19.72M641.22 518.23l-4.73 4.74M633.68 317.1l-26.72 26.71M641.49 324.9l-34.62 34.62M641.49 339.73l-34.62 34.62M641.49 354.55l-34.62 34.62M641.49 369.38 606.87 404M641.49 384.2l-34.62 34.62M641.49 398.85l-34.62 34.63M641.49 413.51l-34.62 34.62M641.49 428.48l-34.62 34.62M641.49 443.44l-34.62 34.62M641.49 458.41l-34.62 34.62M641.49 473.38 606.87 508M641.49 488.35l-34.62 34.62"></path><path class="cls-13" transform="rotate(180 421.73 355.56)" d="M404.35 317.63h34.76v75.87h-34.76z"></path><path class="cls-13" transform="rotate(180 354.4 343.195)" d="M337.02 317.63h34.76v51.13h-34.76z"></path><path style="stroke:#acecbd;stroke-linejoin:round;stroke-width:3;stroke-linecap:round;fill:none" d="M308.14 317.63h361.84"></path></g><path class="cls-6" d="M294.97 393.91V275.43h388.18v292.8H506.44"></path><path d="m433.7 574.36-16.39-116.59c5.15-.72 11.18-1.15 16.39-1.15v117.74Z" style="fill:#489283"></path><path class="cls-15" d="m409.13 530.48-130.08 81.31c-44.9-71.84-23.06-166.49 48.78-211.39 8.62-5.39 14.4-8.33 23.82-12.14l57.48 142.23Z"></path><path class="cls-6" d="M259.65 495.99c8.83-38.25 32.25-73.14 68.17-95.59 8.62-5.39 14.4-8.33 23.82-12.14l57.48 142.23-130.08 81.31"></path><path class="cls-13" d="m433.7 574.36 95.25 69.21c-38.22 52.61-111.85 64.27-164.46 26.05-21.04-15.29-34.73-34.13-42.77-58.87l111.98-36.38Z"></path><path class="cls-14" d="M433.7 574.36V456.62c65.03 0 117.74 52.71 117.74 117.74 0 26.01-7.2 48.16-22.49 69.21l-95.25-69.21Z"></path><path class="cls-3" d="M528.95 643.57c-38.22 52.61-111.85 64.27-164.46 26.05-21.04-15.29-34.73-34.13-42.77-58.87l90.68-29.46"></path><path class="cls-11" d="M609.24 230.91c-10.39 3.43-9.71 12.68-9.71 12.68s50.16 5.16 69.95-.12l-20.66-29.27s-31.37 13.99-39.59 16.7Z"></path><path class="cls-6" d="M609.24 230.91c-10.39 3.43-9.71 12.68-9.71 12.68s25.33 2.6 47.1 2.22"></path><path class="cls-15" transform="rotate(-164.41 576.624 280.832)" d="M552.62 210.17h48.03v141.32h-48.03z"></path><path class="cls-6" d="m607.34 260.13-26.57 95.21-46.26-12.91 33.99-121.8"></path><ellipse class="cls-13" cx="781.72" cy="214.78" rx="29.9" ry="74.17"></ellipse><path class="cls-11" d="M622.78 177.53c-4.58-.66-29.95-3.67-38.67 2.75-20.05 14.77-5.81 26.11-2.24 57.51 0 0 15.84-2.61 12.9-18.6-1.46-7.94-2.3-19.82-2.3-19.82s7.38-.68 16.68 3.35c6.21 2.69 13.63-25.2 13.63-25.2Z"></path><path class="cls-8" d="M622.78 177.53c-4.58-.66-29.95-3.67-38.67 2.75-20.05 14.77-5.81 26.11-2.24 57.51 0 0 15.84-2.61 12.9-18.6-1.46-7.94-3.74-20-2.19-26.74"></path><path class="cls-11" d="M806.61 175.38s-47.37 6.81-86.26-1.43c-9.91-2.1-62.06-15.81-62.06-15.81s-19.47-1.21-24.2 5.48c-.65.92-1.45 2.16-2.32 3.63-7.7 2.24-26.76 17.29-29.1 26.52-.81 3.21 3.26 15.75 6.84 21.59s8.39 10.23 17.7 10.34c4.21.05 8.91-5.69 8.91-5.69 1.64.53 3.78.69 6.14.58 1.46 4.74 9.48 27.62 27.24 22.89 12.79-3.41 48.8-17.7 48.8-17.7l88.41 29.8 3.53-18.32 1.4-37.18-4.57-20.71-.44-3.99Z"></path><path class="cls-7" d="m786.93 248.74 19.76 6.83 3.53-18.32 1.4-37.18-5-24.7-4.3.48c0 48.58-15.38 72.89-15.38 72.89Z"></path><path class="cls-6" d="M631.76 167.24c-7.7 2.24-26.76 17.29-29.1 26.52-.81 3.21 3.26 15.75 6.84 21.59s8.39 10.23 17.7 10.34c4.21.05 8.91-5.69 8.91-5.69M806.61 175.38s-47.37 6.81-86.26-1.43c-9.91-2.1-62.06-15.81-62.06-15.81s-19.47-1.21-24.2 5.48c-.65.92-1.45 2.16-2.32 3.63M646.63 245.81c8.86-.16 17.13-.81 22.85-2.33h0c12.79-3.41 48.8-17.7 48.8-17.7l68.65 22.96"></path><path class="cls-6" d="M631.13 167.42c-7.42 1.82-26.09 16.94-28.47 26.34-.81 3.21 3.26 15.75 6.84 21.59s8.39 10.23 17.7 10.34c4.21.05 8.91-5.69 8.91-5.69"></path><path class="cls-6" d="M655.56 217.25c-6.33 2.51-14.27 4.42-19.45 2.76-5.52-1.77-14.75-11-16.17-16.63-2.58-10.23 9.41-33.07 14.15-39.76"></path><path class="cls-6" d="M648.94 172.55c-3.68 12.28-7.79 29.62-4.26 36.57 2.51 4.93 14.44 10.97 19.84 9.79 4.26-.93 6.8-5.52 8.15-10.83 1.3-5.14-.09-12.21-7.75-12.33"></path><path class="cls-6" d="M662.46 209.34s-2.46-11.48 2.96-20.95M781.72 140.61c16.51 0 29.9 33.21 29.9 74.17 0 40.97-13.39 74.17-29.9 74.17"></path><path class="cls-8" d="M589.2 558.66V643h206.94V480.6H589.2v78.06z"></path><path class="cls-2" d="M611 575.37h165.4M611 602.39h128.49"></path><path class="cls-3" d="m611 516.86 17.36 17.37L643.58 521l20.24 20.23"></path><path class="cls-3" d="M663.69 526.19v15.16h-15.16"></path><path class="cls-14" d="M717.58 533.79c0-4.92 2.7-7.95 7.1-7.95 3.59 0 6.33 2.38 6.56 5.67h-3.08c-.3-1.74-1.68-2.88-3.48-2.88-2.38 0-3.86 1.97-3.86 5.16s1.48 5.17 3.87 5.17c1.81 0 3.18-1.07 3.48-2.74h3.08c-.26 3.27-2.92 5.52-6.57 5.52-4.38 0-7.1-3.03-7.1-7.96ZM748.05 533.79c0 4.91-2.79 7.96-7.26 7.96s-7.29-3.05-7.29-7.96 2.84-7.95 7.29-7.95 7.26 3.05 7.26 7.95Zm-11.31 0c0 3.15 1.56 5.18 4.05 5.18s4.04-2.02 4.04-5.18-1.57-5.17-4.04-5.17-4.05 2-4.05 5.17ZM756.09 525.84c3.16 0 5.36 1.81 5.36 4.41 0 1.65-.89 3.06-3.51 5.52l-2.89 2.76v.19h6.62v2.63h-10.91v-2.21l4.94-4.83c2.13-2.08 2.66-2.86 2.66-3.85 0-1.22-.99-2.08-2.37-2.08-1.47 0-2.47.96-2.47 2.36v.06h-2.94v-.05c0-2.92 2.24-4.92 5.51-4.92ZM774.84 538.06c-.46 2.18-2.45 3.54-5.28 3.54-3.52 0-5.6-2.22-5.6-5.98s2.12-6.09 5.56-6.09 5.42 2.17 5.42 5.84v.93H767v.16c.04 1.72 1.05 2.79 2.64 2.79 1.21 0 2.03-.43 2.36-1.2h2.84Zm-7.83-3.7h4.93c-.06-1.53-.99-2.48-2.41-2.48s-2.41.99-2.52 2.48Z"></path><path class="cls-6" d="M354.64 258.43v-64.89H156.52v149.79H273.4"></path><path class="cls-2" d="M175.29 275.43h105.68M175.29 298.37h89.14"></path><path class="cls-3" d="m175.29 224.76 14.94 14.94 13.1-11.39 17.42 17.42"></path><path class="cls-3" d="M220.64 232.78v13.06h-13.05"></path><path class="cls-14" d="M285.02 239.31c0-4.24 2.33-6.85 6.12-6.85 3.09 0 5.46 2.05 5.65 4.89h-2.66c-.26-1.5-1.45-2.48-3-2.48-2.05 0-3.32 1.7-3.32 4.44s1.27 4.45 3.33 4.45c1.56 0 2.74-.92 3-2.36h2.66c-.23 2.82-2.52 4.76-5.66 4.76-3.78 0-6.12-2.61-6.12-6.86ZM311.26 239.31c0 4.23-2.4 6.86-6.26 6.86s-6.28-2.63-6.28-6.86 2.45-6.85 6.28-6.85 6.26 2.63 6.26 6.85Zm-9.75 0c0 2.72 1.35 4.46 3.49 4.46s3.48-1.74 3.48-4.46-1.35-4.45-3.48-4.45-3.49 1.73-3.49 4.45ZM318.17 232.47c2.72 0 4.62 1.56 4.62 3.8 0 1.42-.77 2.64-3.03 4.76l-2.49 2.38v.16h5.71v2.27h-9.4v-1.91l4.26-4.16c1.83-1.79 2.29-2.47 2.29-3.32 0-1.05-.85-1.79-2.04-1.79-1.26 0-2.13.83-2.13 2.03v.05h-2.53v-.05c0-2.52 1.93-4.24 4.75-4.24ZM334.32 243c-.4 1.88-2.11 3.05-4.55 3.05-3.04 0-4.82-1.92-4.82-5.15s1.83-5.25 4.79-5.25 4.67 1.87 4.67 5.03v.8h-6.84v.14c.04 1.48.9 2.4 2.28 2.4 1.04 0 1.75-.37 2.03-1.03h2.45Zm-6.75-3.19h4.25c-.05-1.32-.85-2.14-2.08-2.14s-2.08.85-2.17 2.14Z"></path><path class="cls-6" d="M245.03 684.67c-11.68 11.68-44.62-2.34-73.59-31.31-28.97-28.97-42.98-61.91-31.31-73.59"></path><path class="cls-8" d="M244.23 577.2c7.26-12.57 8.64-24.85 8.64-39.22 0 0 31.16-15.21 36.39-20.44 10.86-10.86.39-17.53.39-17.53s-60.61 21.2-65.16 23.23c0 0-16.51 20.39-18.36 52.52-.95 16.44-57.58 49.6-57.58 49.6"></path></svg>