<svg xmlns="http://www.w3.org/2000/svg" xmlns:xlink="http://www.w3.org/1999/xlink" viewBox="0 0 960 832.72"><defs><pattern id="_10_dpi_30_2" x="0" y="0" width="28.8" height="28.8" patternTransform="rotate(2.8 86386.725 -123522.054) scale(.42)" patternUnits="userSpaceOnUse"><path class="eng-1" d="M0 0h28.8v28.8H0z"></path><path class="eng-9" d="M28.8 31.39a2.59 2.59 0 1 0-.001-5.181 2.59 2.59 0 0 0 .001 5.181ZM14.4 31.39a2.59 2.59 0 1 0-.001-5.181 2.59 2.59 0 0 0 .001 5.181ZM28.8 16.99a2.59 2.59 0 1 0-.001-5.181 2.59 2.59 0 0 0 .001 5.181ZM14.4 16.99a2.59 2.59 0 1 0-.001-5.181 2.59 2.59 0 0 0 .001 5.181ZM7.2 24.19a2.59 2.59 0 1 0-.001-5.181A2.59 2.59 0 0 0 7.2 24.19ZM21.6 24.19a2.59 2.59 0 1 0-.001-5.181 2.59 2.59 0 0 0 .001 5.181ZM7.2 9.79a2.59 2.59 0 1 0-.001-5.181A2.59 2.59 0 0 0 7.2 9.79ZM21.6 9.79a2.59 2.59 0 1 0-.001-5.181A2.59 2.59 0 0 0 21.6 9.79ZM0 31.39a2.59 2.59 0 1 0-.001-5.181A2.59 2.59 0 0 0 0 31.39ZM0 16.99a2.59 2.59 0 1 0-.001-5.181A2.59 2.59 0 0 0 0 16.99ZM28.8 2.59a2.59 2.59 0 1 0-.001-5.181A2.59 2.59 0 0 0 28.8 2.59ZM14.4 2.59a2.59 2.59 0 1 0-.001-5.181A2.59 2.59 0 0 0 14.4 2.59ZM0 2.59a2.59 2.59 0 1 0-.001-5.181A2.59 2.59 0 0 0 0 2.59Z"></path></pattern><pattern id="_10_dpi_30_2-2" patternTransform="matrix(.42 0 0 .42 -5700.69 -4259.54)" xlink:href="#_10_dpi_30_2"></pattern><pattern id="_10_dpi_30_2-3" patternTransform="matrix(.42 0 0 .42 -5700.69 -4259.54)" xlink:href="#_10_dpi_30_2"></pattern><pattern id="_10_dpi_30_2-4" patternTransform="matrix(.42 0 0 .42 -5703.49 -4258.14)" xlink:href="#_10_dpi_30_2"></pattern><pattern id="_10_dpi_30_2-5" patternTransform="matrix(.42 0 0 .42 -5703.49 -4258.14)" xlink:href="#_10_dpi_30_2"></pattern><pattern id="_10_dpi_30_2-6" patternTransform="rotate(3.91 57769.458 -88109.486) scale(.42)" xlink:href="#_10_dpi_30_2"></pattern><pattern id="_10_dpi_30_2-7" patternTransform="matrix(.42 0 0 .42 -5570.49 -4258.14)" xlink:href="#_10_dpi_30_2"></pattern><pattern id="_10_dpi_30_2-8" patternTransform="matrix(.42 0 0 .42 -5570.49 -4258.14)" xlink:href="#_10_dpi_30_2"></pattern><pattern id="_10_dpi_30_2-9" patternTransform="rotate(-20.56 -17262.777 9967.982) scale(.42)" xlink:href="#_10_dpi_30_2"></pattern><pattern id="_10_dpi_30_2-10" patternTransform="matrix(.42 0 0 .42 -5570.49 -4258.14)" xlink:href="#_10_dpi_30_2"></pattern><pattern id="_10_dpi_30_2-11" patternTransform="rotate(-11.04 -22862.672 19417.227) scale(.53)" xlink:href="#_10_dpi_30_2"></pattern><pattern id="_10_dpi_30_2-12" patternTransform="matrix(.42 0 0 .42 -5570.49 -4258.14)" xlink:href="#_10_dpi_30_2"></pattern><clipPath id="clippath"><circle class="eng-1" cx="491.59" cy="463.59" r="256.95"></circle></clipPath><style>.eng-1,.eng-2,.eng-3,.eng-4,.eng-6{fill:none}.eng-2{stroke-miterlimit:10}.eng-2,.eng-3,.eng-4,.eng-6,.ted-6,.eng-7{stroke-linecap:round}.eng-2,.eng-3,.eng-4{stroke-width:3px}.eng-2,.eng-4,.eng-6,.ted-6{stroke:#244942}.eng-3{stroke:#2dc653}.eng-3,.eng-4,.eng-6,.ted-6,.eng-7{stroke-linejoin:round}.eng-9{fill:#2dc653}.eng-6,.ted-6,.eng-7{stroke-width:2px}.eng-10{fill:#f3fcf5}.eng-11{fill:#fff}.eng-12{fill:#def7e5}.eng-13,.eng-7{fill:#acecbd}.eng-7{stroke:#acecbd}.eng-22{opacity:.4}.ted-6{animation: sparkle 2s linear infinite;}</style></defs><circle class="eng-11" cx="491.49" cy="463.12" r="256.48"></circle><path class="eng-11" d="M420.21 176.88s19.13-2.99 21.87-5.87c8.1-8.49 11.55-9.81 17.41-7.47 2.53 1.01 4.91 3.6 6.76 6.15 5.43-2.65 9.49 5.39 10.11 6.53 2.21 4.04-6.36 3.2-6.36 3.2-2.24.19-4.59-1.17-7.99.7s-5.58-4.73-8.03-3.55c-5.55 2.67-7.7 7.88-7.7 7.88-10.15 4.07-22.12 7.84-27.61 9.88l1.5-9.15.04-8.3ZM289.1 161.66c-7.58-.11-28.82 26.25-30.09 27.87s-6.51 1.76-7.45 3.02-2.91 4.98-1.63 7.42 9.89 7.31 11.47 7.31 4.6 7.39 4.6 7.39l6.63 9.03 3.45 3.07s-10.44 3.27-15.14 11.52-5.58 15.63-5.58 15.63l-1.42 12.43-.85 15.98-.96 13.45-2.14 27.07 12.73 2.3h16.33l25.81-25.02s22.34-24.16 22.34-29.5-.81-17.03-.81-17.03l-2.62-11.19s-5.81-15.81-14.31-19.17l1.68-4.68 4.28-11.93 1.31-3.97 5.63-3.92 2.28-5.51-.49-5.06-11.01-16s-12.69-10.35-24.04-10.52ZM150.43 697.9h54.77l6.75-19.04h-29.6s-7.81-9.53-21.81-9.53c-15.48 0-44.92 11.01-44.92 28.56h34.81Z"></path><path class="eng-2" d="M466.99 169.47c5.18-1.6 9.37 6.76 9.37 6.76"></path><path class="eng-2" d="M420.21 176.88s19.13-2.99 21.87-5.87c8.1-8.49 11.55-9.81 17.41-7.47 5.64 2.26 8.9 6.82 10.51 12.35M424.63 192.36c6.82-2.95 17.09-7.08 23.79-8.38"></path><path class="eng-2" d="M459.08 170.66c3.35 1.85 5.07 7.96 5.07 7.96"></path><path class="eng-13" d="M431.47 199.83s-16.47 4.23-46.54 17.83c-31.72 14.35-58.17 38.98-58.17 38.98l-2.99-14.22-5.88-12.11-7-6.23s30-20.35 52.52-31.19c40.68-19.58 71.49-26.97 71.49-26.97l-3.44 33.91Z"></path><path class="eng-3" d="M317.89 219.46c10.22-6.65 29.71-18.95 45.52-26.56 40.68-19.58 71.49-26.97 71.49-26.97l-3.44 33.91s-16.47 4.23-46.54 17.83c-31.72 14.35-57.74 37.26-57.74 37.26"></path><path class="eng-2" d="m255.83 332.26-3.54 50.6a71.564 71.564 0 0 0 28.04 61.93l20.96 15.96"></path><path class="eng-13" d="M150.43 697.9h24.97c-4.52-14.28 6.96-19.04 6.96-19.04s-7.81-9.53-21.81-9.53c-15.48 0-44.92 11.01-44.92 28.56h34.81Z"></path><path class="eng-10" d="M921.69 284.73c0-57.86-58.55-90.49-105-58.53-7.09-18.72-22.64-26.21-36.7-21.94 6.93-40.09-11.27-80.84-71.28-72.95-26.76-22.94-68.43-29.13-101.73-3.18-28.43 22.16-26.67 57.3-23.9 71.87-25.21 3.24-57.03 31.94-55.72 67.81 1.39 37.74 23.08 81.65 93.86 67.16 30.2 54.62 139.89 59.69 182.89 3.24 45.76 32.77 117.55 17.16 117.55-53.48ZM398.01 555.32c0-52.78-53.4-82.54-95.77-53.38-6.47-17.08-20.65-23.9-33.47-20.01 6.32-36.57-10.28-73.74-65.01-66.54-24.41-20.93-62.42-26.57-92.79-2.9-25.93 20.21-24.33 52.27-21.8 65.55-23 2.96-52.02 29.14-50.82 61.85 1.27 34.43 21.05 74.48 85.62 61.26 27.55 49.82 127.6 54.45 166.82 2.95 41.74 29.89 107.22 15.66 107.22-48.78Z"></path><g style="clip-path:url(#clippath)"><path class="eng-12" d="M496.41 462.85c-18.15 33.28-56.81 34.34-88.13 20.95-34.35-6.84-66.44 23.71-77.12 57.07-10.68 33.37-6.75 69.38-9.04 104.34-.03 86.32-79.11 135.45-146.11 71.46-111.15-130.73-25.63-458.24 138.27-510.69 50.42-24.32 112.03 18.9 107.81 74.29-1.23 20.97-10.91 42.7-3.05 62.18 20.58 43.56 109.03 38.37 77.36 120.41Z"></path><g class="eng-22"><path class="eng-13" d="M785.47 513.28c-.47 84.51-80.39 158.58-138.63 66.47-11.98-21.19-4.52-80.93-13.25-103.66-19.74-51.36-67.61-60.07-89.2-110.66-25.12-57.89-28.85-135.64 25.57-174.29 33.25-49.99 101.37-48.85 143.61-13.11 77.94 85.62 78.03 225.21 71.89 335.25Z"></path></g><g class="eng-22"><path class="eng-13" d="M658.79 734.5c-18.92 5.88-39.32 1.84-58.68-2.25-63.36-13.34-151.02 11.6-190.07-40.06-47.96-63.45 38.87-178.42 131.09-81.28 57.39 60.46 149.58 10.97 147.81 79.06-.51 19.8-11.24 38.67-30.14 44.53Z"></path></g></g><path class="eng-4" d="M685.33 632.38c-47.1 54.02-116.44 88.16-193.74 88.16-141.91 0-256.95-115.04-256.95-256.95 0-9.49.51-18.87 1.52-28.09"></path><path class="eng-4" d="M439.81 211.72c-117.09 23.96-205.17 127.56-205.17 251.73"></path><path class="eng-9" d="M423.19 585.57s-24.33-13.04-42.36-36.01l-14.46 22.93c18.78 19.78 39.61 33.15 39.61 33.15 5.74-6.69 11.48-13.39 17.21-20.08Z"></path><path class="eng-4" d="M365.97 523.2c13.8 39.12 57.21 62.37 57.21 62.37-5.74 6.69-11.48 13.39-17.21 20.08 0 0-48.69-31.25-64.3-68.89"></path><path class="eng-11" d="m235.26 338.79 6.68 8.92 10.98 2.81 13.69 2.27 2.23 1.67 1.18 3.96-3.53-.3-6.25-1.06-3.27 1.27.56 4.83 4.81 6.13s4.3 3.74 4.98 6.48c.68 2.74-4.7 15.2-16.56 10.4-3.27-1.32-7.44-7.6-7.44-7.6l-3.78-7.75-.79-7.27-11.13-12.37 2.88-7.18 4.76-5.2Z"></path><path class="eng-4" d="M238.27 344.24c4.85 4.41 8.63 5.39 14.67 6.34 6.03.96 16.2.93 16.37 7.03.08 2.84-8.67-2.48-11.78.94-1.95 2.15.9 5.57 2.76 7.8 2.9 3.48 5.8 6.97 8.7 10.45M252.74 387.33c-5.84-3.61-12.82-12.19-13.16-19.33-.31-6.66-5.61-10.27-9.98-14.25M264.45 381.77c-1.77-1.58-6.49-5.88-8.19-8.34M261.31 386.73c-2.35-1.45-7.84-5.99-8.77-7.98"></path><path class="eng-13" d="M251.35 191.53c-5.74-20.03 15.86-45.13 31.02-44.39s2.88 4.66 2.88 4.66 2.74-12.16 21.5-2.1c22.28 11.95 16.51 32.78 14.54 34.88-1.97 2.1-47.9 16.85-46.12-19.44l6.25 1.39s-6.35 26.16-30.07 25Z"></path><path d="M306.77 175.05c-3.42 2.1-6.01 4.31-10.14 4.09-.2-.01-.4-.03-.61-.05-.33-.46-.79-.89-1.39-1.24-1.79-1.06-3.46-2.24-4.92-3.73-.23-.23-.45-.48-.67-.72 8.67 2.04 18.2.36 22.08-6.7 2.78-5.06-4.75-10-7.54-4.92-2.16 3.93-7.78 3.74-11.63 2.9-3.36-.74-11.14-3.81-10.83-8.19.3-4.24-4.45-5.59-7.17-3.73-.73-.3-1.58-.41-2.53-.24-5.99 1.05-11.38 6.78-15.06 11.33-4.23 5.23-5.6 11.47-5.96 18.21-.31 5.78 7.5 6.13 7.81.34.25-4.64 1.92-8.69 4.71-12.39 2.21-2.91 6.23-7.62 10-8.59.96 2.54 2.71 4.79 4.97 6.66-.23.5-.4 1.05-.48 1.63-.1.72-.05 1.44.11 2.15-.07.5-.07 1.03.04 1.61 1.26 6.51 7.57 12.61 13.96 14.08 7.93 1.82 12.8-.46 19.41-4.51 4.91-3.01.8-11.03-4.16-7.98Z" style="fill:url(#_10_dpi_30_2)"></path><path class="eng-2" d="M261.39 198.23c1.56 13.46 6.19 20.9 12.75 26.93 6.56 6.03 16.36 8.7 24.65 5.44 11.6-4.57 18.79-21.56 16.13-35.17M279.82 147.01c-8.49 2.49-16.12 7.84-21.36 14.97-5.24 7.13-8.07 16.01-7.92 24.86"></path><path class="eng-2" d="M255.88 191.39c-5.64-.28-5.92 3.68-5.96 6.28-.04 2.6 2.3 9.09 13.04 9.61M274.06 178.04c-.28 5.77-4.22 9.79-10.03 11.49M271.95 157.93c-.48 9.85 12.66 15.91 21.72 16.36 10.17.5 18.33-5.06 18.67-12.15"></path><path class="eng-2" d="M322.76 185.89c6.41-30.62-18.01-39.2-26.24-39.6-5.61-.27-10.37.59-10.61 5.54-.41 8.34 14.3 10.38 19.21 6.15"></path><path class="eng-2" d="M277.15 168.8c-.78 15.98 13.03 19.21 17.85 19.44 11.13.54 20.78-6.86 21.15-14.37M280.3 217.66c2.58 6.2 10.08 7.11 12.71 6.64M275.3 202.55c1.79-.94 3.09-2.63 6.43-1.66M297.95 198.52c1.37-.34 3.09-2.29 6.35.31M294.31 201.39c.41 2.81 1.63 8.27 2.03 10.09.39 1.82-3.76 3.42-7.24.57M281.19 231.18c.97 2.17 2.06 8.25 9.12 8.67 6.33.38 7.86-8.39 7.86-8.39M317.51 185.9c1.18-1.59 3.82-1.38 5.24 0s1.85 3.49 1.88 5.46c.07 5.11-2.77 10.32-9.21 11.66"></path><circle class="eng-2" cx="278.59" cy="201.21" r="10.02"></circle><circle class="eng-2" cx="304.22" cy="200.46" r="10.02"></circle><path class="eng-2" d="M288.29 198.68c2.06-1.87 4.4-1.5 5.93 1.29"></path><path d="M307.03 472.62c-6.46 3.68-12.71 8.39-15.59 15.49-3.26 8.06-1.39 17.85.88 25.93 1.86 6.59 12.15 3.79 10.28-2.83-1.61-5.71-3.56-13.16-1.34-18.94 1.89-4.93 6.77-7.94 11.14-10.43 5.96-3.39.6-12.61-5.38-9.2Z" style="fill:url(#_10_dpi_30_2-2)"></path><path d="M310.34 446.71c-5.59 1.78-11.95 5.45-15.23 10.46-3.64 5.58-3.15 12.09-2.08 18.35-.22 1.23.07 2.58 1.16 3.76.05.05.1.11.15.16 1.79 1.94 4.51 1.45 6.36 0l.17-.13c1.29-1.01 1.43-2.92 1.16-4.38-.82-4.36-1.9-9.55 1-13.4 2.09-2.78 6.43-5.09 9.69-6.13 5.5-1.75 3.15-10.44-2.39-8.68Z" style="fill:url(#_10_dpi_30_2-3)"></path><path class="eng-11" d="m367.31 447.48-5.24 14.83-10.92 10.55-8.3 2.13-5.95-1.17-3.96-4.85-4.57-.49-4.78 4.02-.62 6.4 2.59 4.51 6.2 3.96 5.55 15.72 6.88 7.4 6.51 2.88 1.66 5.44 6.83 4.35 3.7-.37 4.44-5.81 1.27-3.93 6.41-5.26 4.81-7.18 4.24-8.93h2.8l4.06-3.24 1.8-4.71-1.44-5.85-4.75-.92.14-7.22-7.77-4.67-4.3-5.18-3.46-8.8s-.86-3.37-3.79-3.6Z"></path><path d="M372.65 430.69c-2.45.48-3.87 5.4-3.87 6.06 0 8.53 2.59 17.94 5.09 22.21 7.28 12.45 16.64 9.3 17.23 6.8 3.21-13.57.77-38.86-18.45-35.07Z" style="fill:url(#_10_dpi_30_2-4)"></path><path d="M367 442.5c1.4-1.71 1.55-4.52-.13-6.23-.27-.28-.53-.56-.78-.84.06-1.85-.87-3.72-3.13-4.43-.24-.08-.49-.15-.73-.23-1.25-1.32-2.73-2.46-4.94-3.24-3.83-1.35-8-1.24-11.92-.27-3.62-.15-7.23.25-10.77 1.52-8.46 3.03-13.25 10.18-15.85 18.47-.98 3.12-1.69 6.32-2.36 9.52-1.89 2.62-3.28 5.59-3.84 9.04-.23 1.39.19 2.97 1.05 4.14-.31 2.06-.47 4.12-.32 6.17 0 .05.01.1.02.15-.17 2.42.16 4.89 1.06 7.23.53 1.39 1.25 2.69 2.14 3.85 2.46 5.02 6.01 9.57 9.6 13.82 2.82 3.33 7.27.26 7.68-3.18.43-3.65.31-7.58-2.03-10.62-2.02-2.63-5.71-2.98-7.84-5.19-.81-1.9-1.38-3.86-1.6-5.9a8.6 8.6 0 0 1 2.63-4.77c1.68-1.55 3.9-2.49 6.12-2.95.7-.14 2.02-.08 3.2-.12.98.88 1.71 1.85 1.94 2.79.41 1.68 1.83 2.77 3.41 3.12 6.07 3.81 15.41-3.57 19.21-7.86 5.77-6.5 8.85-14.96 8.24-23.65 0-.12-.04-.23-.06-.35Z" style="fill:url(#_10_dpi_30_2-5)"></path><path class="eng-4" d="M150.43 697.9h54.77l6.75-19.04h-29.6s-7.81-9.53-21.81-9.53c-15.48 0-44.92 11.01-44.92 28.56h34.81Z"></path><path class="eng-11" d="m287.23 591.82-6.12 13.21-3.88 15.73.14 12.95 3.91 30.22 3.39 3.36-7.44-.5-76.46-15.09-13.53 55.68 93.89 3.33 35.14.58 23.27-1.91 13.97-4.02 5.06-3.43 3.91-6.39 2.02-7.98.88-11.17-.59-27.56-1.8-21.57-.51-10.32-15.87.16-14-3.52-14.74-4.54-12.09-5.94-11.89-6.57-6.66-4.71z"></path><path class="eng-9" d="m379.9 562.99 1.39-17.76-1.45-12.2-7.66-22.36-7.18 4.93-6.46.6-9.95-2.91-7.07-4.94c-1.89 1.11-21.44 13.51-21.44 13.51l-12.12 11.94-9.49 12.9-10.08 17.91-9.87 21.21 11.39 7.9 20.11 10.81 19.41 7.45 17.49 4.14 17.83 1.49 6.61-19 8.53-35.64Z"></path><path class="eng-11" d="m351.63 513.38-.48 2.98 3.26 4.79 6.28 2.01 4.96-3.19 2.69-6.18-3.04.83-6.05.62-5.58-.71-2.04-1.15z"></path><path class="eng-4" d="M331.79 478.16c0 29.56 14.38 37.07 29.91 37.07 13.37 0 23.6-21.79 23.6-33.77"></path><path class="eng-4" d="M368.14 436.47c0 17.64-5.44 26.41-10.72 31.69-10.67 10.67-20.53 5.67-20.53 5.67-.58-4.04-5.56-6.59-9.36-5.08-3.8 1.5-5.75 6.26-4.58 10.17s5.03 6.7 9.08 7.15"></path><path class="eng-4" d="M363.25 429.28c-6.6-3.55-14.54-4.1-21.87-2.55-16.08 3.4-24.52 17.38-27.27 33.58-2.75 16.21.36 33.62 14.43 42.13M369.35 430.91c4.56-3.6 12.13-1.36 16.24 2.75 11.08 11.08 7.24 26.55 5.5 32.1M371.37 449.82c.51 10.62 9.7 20.13 20.3 20.99M388.87 477.5c2.86-1.13 3.82 2.58 3.82 5.36 0 3.07-2.36 9.17-8.08 9.17M368.14 484.33c0 6.69 2.75 5.5 2.75 8.68 0 2.97-2.91 3.62-6.13 3.57M354.63 479.79c0-3.72 3.85-4.73 5.58-3M359.17 481.58v4.31M373.87 479.79c0-3.72 3.85-4.73 5.58-3M311.64 446.12c-7.61 1.69-14.3 7.1-17.53 14.19-3.23 7.09-2.94 15.69.77 22.54M302.16 476.14c-6.1 4.74-10.36 11.78-11.74 19.38-1.38 7.6.14 15.69 4.19 22.27M303.1 497.79c6.36 10.54 3.45 25.68-6.37 33.1M372.29 513.38c12.53 22.06 10.41 39.5 7.07 52.25-.78 2.98-2.96 11.98-2.96 11.98"></path><path class="eng-4" d="M360.21 436.47c0 10.97-16.02 24.8-25.7 24.8M351.15 436.47c-6.28 0-23.76 10.07-29.53 27.71M380.25 437.98c0 2.7.75 10.52 6.27 16.04"></path><path class="eng-2" d="M350.68 499.13c2.98 6.28 10.78 6.84 13.48 6.23"></path><path class="eng-4" d="M328.3 632.03c5.11 23.04 13.04 69.33 5.54 76.94-7.5 7.61-130.53-1.59-146.61-1.59l13.53-55.68 88.87 15.92"></path><path class="eng-4" d="M362.72 618.52c-.68 15.23 8.73 70.53-4.15 83.41-13.32 13.32-65.22 9.58-81.29 9.58M282.27 665.67c-11.57-31.78-.13-62 5.22-73.72M317.87 628.44c3.02 1.16 12.31 2.99 19.05 3.59M367.65 513.79s-1.08 8.77-7.44 8.77c-7.07 0-8.46-6.1-9.53-8.22"></path><path class="eng-4" d="M346.2 516.76c1.66 3.28 4.48 10.18 14.58 10.18s11.5-13.56 11.5-13.56M377.3 481.58v4.31"></path><path class="eng-2" d="M178.27 681.94c-2.87 1.44-5.13 10.98-2.87 15.96M155.16 697.9c0-6.91 2.17-11.71 2.17-11.71"></path><path class="eng-4" d="m371.37 598.63-6.61 19c-46.54 0-86.23-31.81-86.23-31.81 14.37-32.49 27.94-59.33 57.39-74.22"></path><path class="eng-9" d="M457.28 187.42v22c0 4.42 3.58 8 8 8h149.53c-62.03 55.16-114.92 124.63-154.53 203.46-46.71 92.94-72 192.93-73.34 289.7-.06 4.47 3.54 8.13 8.01 8.13h22c4.37 0 7.93-3.5 7.99-7.87 1.31-90.97 25.2-185.15 69.29-272.89 39.39-78.38 92.52-146.86 154.87-200.01v163.3c0 4.42 3.58 8 8 8h22c4.42 0 8-3.58 8-8V189.42c0-5.52-4.48-10-10-10H465.28c-4.42 0-8 3.58-8 8Z"></path><path class="eng-11" d="M405.66 587.07s28.32-7.7 30.36-8.05c2.03-.35 4.76-8.71 9.7-7.25 4.95 1.46 5.13 8.74 4.19 11.67-.94 2.93-2.67 9.37-8.88 10.7-6.21 1.33-23.93 6.3-29.01 8.97l-6.35-16.04Z"></path><path class="eng-11" d="M419.65 587.07s2.75-2.01 8.52-8.26c2.76-2.99 4.83-6.55 7.44-9.66 2.61-3.12 6.01-5.89 10.05-6.42-1.06 4.7-4.94 10.06-3.39 17.72l-22.62 6.62Z"></path><path class="eng-4" d="M414.07 602.43c5.2-1.87 8.6-3.52 15.42-5.75 6.18-2.03 6.24-.52 12.32-2.82 10.13-3.84 11.38-22.14 3.11-22.14"></path><path class="eng-4" d="M443.36 576.17c-1.96-5.98 3.01-11.61 1.07-13.23-2.11-1.78-6.2 3.1-8.82 6.22-2.61 3.12-4.68 6.68-7.44 9.66-2.59 2.8-16.56 6.07-20.61 7.74"></path><path class="eng-9" d="M350.01 536.28s5.09 34.15 19.1 41.73c27.34 14.8 44.33 1.93 44.33 1.93-3.31 9.13-3.04 18.39-.52 26.59 0 0-29.31 11.98-57.79-2.47-28.73-14.57-29.47-51.87-29.47-51.87l24.36-15.9Z"></path><path class="eng-4" d="M350.01 536.28s5.09 34.15 19.1 41.73c27.34 14.8 44.33 1.93 44.33 1.93-3.31 9.13-3.04 18.39-.52 26.59 0 0-29.31 11.98-57.79-2.47-28.73-14.57-29.47-51.87-29.47-51.87M687.1 284.67v-95.24c0-5.52-4.48-10-10-10H465.28c-4.42 0-8 3.58-8 8v22c0 4.42 3.58 8 8 8h149.53c-62.03 55.16-114.92 124.63-154.53 203.46-23.27 46.3-41.22 94.35-53.55 142.88"></path><path class="eng-4" d="M448.44 555c11.33-39.7 26.66-78.98 45.79-117.04 39.39-78.38 92.52-146.86 154.87-200.01v163.3c0 4.42 3.58 8 8 8h22c4.42 0 8-3.58 8-8v-40.74M392.63 635.8c-3.44 25.02-5.35 50.01-5.7 74.79-.06 4.47 3.54 8.13 8.01 8.13h22c4.37 0 7.93-3.5 7.99-7.87.43-29.62 3.25-59.58 8.38-89.55"></path><path class="eng-11" d="M814.47 688.21c6 6.75 7.97 6.84 7.97 11.75 0 10.14-33.34 20.07-43.45 21.32s-13.78-2.97-13.19-6.61c1.14-6.95 12.83-11.18 22.93-17.05l25.74-9.41ZM701.38 698.69c-2.87.13-18.92 4.02-25.14 8.49-6.22 4.47-6.15 7.68 2.49 10.98s46.35 6.05 53.85-1.45c3.35-3.35 2.51-16.52 2.51-16.52l-33.72-1.5Z"></path><path class="eng-12" d="m791.47 671.98 3.62 14.21 1.17 6.11-2.9 4.69-.77 2.82h1.79l11.88-7.96 8.64-3.93-2.84-7.36-2.76-8.13-17.83-.45zM722.07 671.46l-4.03 25.45-12.24.91-6.77 2.06.35 2.07 7.76 3.82 11.55 2.5 8.65-1.38 7.45-4.49 1.7-9.46 2.41-12.18-16.83-9.3z"></path><path class="eng-11" d="M746.62 441.14c-34.46-31.95-52.92-82.46-52.92-82.46 12.16-1.52 19.15-6.26 21.59-18.27 0 0 18.43 40.62 35.14 53.96l19.97 16.81 16.33 22.69-25.31 18.8-14.81-11.54Z"></path><path class="eng-12" d="M775.5 370.31c-3.11.94-7.32 5.22-7.32 5.22l-7.89 1.77-2.81 3.89 2.64 10.75-1.51 8.97 3.08 10.22 5.67 6.42s3.92 2.41 8 2.46c4.08.06 5.04-2.84 5.04-2.84l-1.4-5.22 4.48-8.01-.56-3.33 7.85-2.03 4.04-2.96 2.07-4.44-.12-3.31-2.01-3.27-6.96-2.56s-8.77.46-10.52-5.63l-1.75-6.09Z"></path><path class="eng-10" d="M673.02 416.38c-2.53-.91-7.31-3.98-7.31-3.98l-4.64-5.75 1.27-3.13 13.61 5.07 9.45 1.9 5.06 6.41-17.43-.53Z"></path><path class="eng-12" d="M657.68 412.04c.57.04 4.26 1.35 5.98 3.45 1.72 2.1 2.04-3.09 2.04-3.09l-4.64-5.75 1.27-3.13 13.61 5.07 9.45 1.9 5.06 6.41 3.06 6.95 4.89 14.58 1.67 7.77-4.42 3.28-7.92 2.37-6.48-.08-1.19-7.84-3.11-12.14-1.08-4.96-9.33.62-9.36-2.44s-6.76-3.16-9.48-5.99c-6.22-6.47 9.42-7.02 9.98-6.98Z"></path><path d="M657.68 412.04c.57.04 4.26 1.35 5.98 3.45 1.72 2.1 2.04-3.09 2.04-3.09l-4.64-5.75 1.27-3.13 13.61 5.07 9.45 1.9 5.06 6.41 3.06 6.95 4.89 14.58 1.67 7.77-4.42 3.28-7.92 2.37-6.48-.08-1.19-7.84-3.11-12.14-1.08-4.96-9.33.62-9.36-2.44s-6.79-3.21-9.48-5.99c-5.53-5.71 9.42-7.02 9.98-6.98Z" style="fill:url(#_10_dpi_30_2-6)"></path><path class="eng-4" d="M647.18 417.7c8.18 9.55 23 12.66 34.33 7.2M676.57 429.11l5.36 22.71"></path><path class="eng-4" d="M700.69 445.34s-5.55-12.93-10.24-28.44c-1.81-5.99-7.89-8.69-14.46-9.03-5.63-.29-12.58-4.85-14.02-3.77-3.81 2.88 6.41 11.12 11.04 12.28M652.45 413.72s3.99 5.04 7.7 6.47M660.62 413.31s2.92 3.02 5.53 4.31"></path><path style="fill:url(#_10_dpi_30_2-7)" d="m791.47 671.98 3.62 14.21 1.17 6.11-2.9 4.69-.77 2.82h1.79l11.88-7.96 8.64-3.93-2.84-7.36-2.76-8.13-17.83-.45z"></path><path style="fill:url(#_10_dpi_30_2-8)" d="m722.07 671.46-4.03 25.45-12.24.91-6.77 2.06.35 2.07 7.76 3.82 11.55 2.5 8.65-1.38 7.45-4.49 1.7-9.46 2.41-12.18-16.83-9.3z"></path><path class="eng-12" d="m700.25 357.02-5.18-10.85-9.94-8.48-13.11-9.03-1.72-2.75.37-4.8 3.71 1.8 6.35 3.77h4.09l1.42-5.49-2.66-8.68s-3.11-5.87-2.7-9.13c.41-3.26 12.31-15.38 23.18-5.2 3 2.81 4.91 11.38 4.91 11.38l.87 11.66-2.18 6.59.52 8.3 3.57 7.61 2.01 3.03-6.14 6.61-7.35 3.66Z"></path><path d="m700.25 357.02-5.18-10.85-9.94-8.48-13.11-9.03-1.72-2.75.37-4.8 3.71 1.8 6.35 3.77h4.09l1.42-5.49-2.66-8.68s-3.11-5.87-2.7-9.13c.41-3.26 12.31-15.38 23.18-5.2 3 2.81 4.91 11.38 4.91 11.38l.87 11.66-2.18 6.59.52 8.3 3.57 7.61 2.01 3.03-6.14 6.61-7.35 3.66Z" style="fill:url(#_10_dpi_30_2-9)"></path><path d="M775.5 370.31c-3.11.94-7.32 5.22-7.32 5.22l-7.89 1.77-2.81 3.89 2.64 10.75-1.51 8.97 3.08 10.22 5.67 6.42s3.92 2.41 8 2.46c4.08.06 5.04-2.84 5.04-2.84l-1.4-5.22 4.48-8.01-.56-3.33 7.85-2.03 4.04-2.96 2.07-4.44-.12-3.31-2.01-3.27-6.96-2.56s-8.77.46-10.52-5.63l-1.75-6.09Z" style="fill:url(#_10_dpi_30_2-10)"></path><path class="eng-4" d="m717.67 698.69 4.4-20.96M740.36 672.43s-4.32 22.98-5.27 27.76c-1.39 6.99-15.23 10.8-30.36 4.69-16.91-6.83 6.91-7.54 6.91-7.54M806.38 662.54l8.09 25.67s-8.94 3-17.93 9.74c-8.98 6.74-.28-5.65-.28-5.65l-4.79-24.97"></path><path class="eng-11" d="m735.45 490.82-4.55 26.33 78.83 13.74c3.84-16.75 4.87-26.54 4.73-43.72-.09-10.88-1.02-21.94-4.96-32.09-3.94-10.14-11.23-19.37-21.23-23.68l3.01-5.01-28.48-2.24 2.08 7.39v.02c-2.54 1.2-15 8.9-19.14 25.4"></path><path class="eng-13" d="m801.36 529.43-70.46-12.28-29.16 169.04h63.9l5.77-54.16 1.88 28.34 2.81 19.99 56.12-7.93-25.95-67.99 3.46-73.55-8.37-1.46z"></path><path d="M735.62 500.1c4.19-.82 26.2-10.59 29.66-15.72l-27.67 1.45-1.98 14.26Z" style="fill:url(#_10_dpi_30_2-11)"></path><path class="eng-11" d="M774.11 477.81s-20.82 13-48.61 13c-41.59 0-55.47-49.73-55.47-49.73 13.15 3.62 23.59.16 31.99-10.58 0 0 4.78 29.81 27.9 29.81 14.21 0 43.2-15.19 43.2-15.19l.99 32.69Z"></path><path class="eng-4" d="M774.11 477.81s-20.82 13-48.61 13c-41.59 0-55.47-49.73-55.47-49.73 13.15 3.62 23.59.16 31.99-10.58 0 0 4.78 29.81 27.9 29.81 14.21 0 43.2-15.19 43.2-15.19M698.31 351.89c-3.23-7.27-6.96-10.19-13.19-14.2-6.23-4.01-17.54-8.94-14.74-15.79 1.3-3.19 8.42 6.99 13.54 4.71 3.22-1.43 1.72-6.62.74-10.01-1.52-5.28-3.04-10.56-4.56-15.85"></path><path class="eng-9" d="M786.42 383.41c-3.64 1.87-10.25-5.54-10.64-11.32s2.57-15.96 2.57-15.96l5.2-6.18 10.99-4.65 10.89 1.41 10.47 6.79 9.83 1.8 9.65 6.54 4.54 8.06.87 10.19-4.29 8.11 2.15 8.61-2.41 12.47-6.78 8.9-10.71 5.29-10.87.68-7.35 3.12-6.96-.33-9.84-3.85-4.16-6.95-.6-1.82s-1.06-12.09 5.36-13.92c6.41-1.83 10.2-3 10.2-3l2.33-5.07.4-5.47-4.17-4.6-3.2-.65-3.49 1.8Z"></path><path class="eng-4" d="M703.27 296.98c4.72 6.86 8.29 19.79 5.17 27.88-2.9 7.54 1.22 14.15 4.12 20.69M772.39 371.25c-5.88 7.36-11.67 15.33-13.19 24.62-1.52 9.29 2.61 20.18 11.47 23.36M768.19 375.53c-3.65.86-7.7.41-9.79 3.51-1.97 2.93-.41 4.33.13 7.82M784.45 385.89c1.51-4.13 7.9-4.84 10.87-1.61 2.97 3.23 2.37 8.76-.64 11.96-3.01 3.2-7.78 4.27-12.14 3.69"></path><path class="eng-4" d="M746.62 441.14c-34.46-31.95-52.92-82.46-52.92-82.46 12.16-1.52 19.15-6.26 21.59-18.27 0 0 18.43 40.62 35.14 53.96"></path><path d="M778.99 567.82c.48 6.26-.61 27.81 2.77 58.03 4.52 40.47 14.81 51.87 14.81 51.87l-20.46 2.63-5.6-39.78 8.49-72.76Z" style="fill:url(#_10_dpi_30_2-12)"></path><path class="eng-3" d="m809.73 530.89-3.46 73.55 25.95 67.99-56.12 7.93-5.6-39.78"></path><path class="eng-3" d="m778.99 560.93-13.35 125.26h-63.9l25.4-147.21"></path><path class="eng-4" d="m772.03 378.56-3.05 3.05M735.45 490.82l-4.55 26.33 78.83 13.74c3.84-16.75 4.87-26.54 4.73-43.72-.09-10.88-1.02-21.94-4.96-32.09-3.94-10.14-11.23-19.37-21.23-23.68l3.01-5.01-28.48-2.24 2.08 7.39v.02c-2.54 1.2-15 8.9-19.14 25.4M687.55 297.44c1.2 2.62 4.34 9.7 5.02 13.25M693.47 293.47c1.9 2.75 5.78 10.47 5.84 13.15M701.38 698.69c-2.87.13-18.92 4.02-25.14 8.49-6.22 4.47-6.15 7.68 2.49 10.98s46.35 6.05 53.85-1.45c3.35-3.35 2.51-16.52 2.51-16.52M814.47 688.21c6 6.75 7.97 6.84 7.97 11.75 0 10.14-33.34 20.07-43.45 21.32s-13.78-2.97-13.19-6.61c1.14-6.95 12.83-11.18 22.93-17.05"></path><path class="eng-3" d="M806.27 604.44c-1.41-4.07-5.46-11.08-8.78-14.77"></path><path class="eng-4" d="M777.71 377.6c-4.72-9.05-2.14-21.29 5.85-27.66 7.98-6.37 20.49-6.17 28.27.45"></path><path class="eng-4" d="M795.53 360.77c6.44-4.87 14.53-7.79 22.58-7.19 8.05.59 15.94 4.95 19.97 11.95 4.03 6.99 3.67 16.52-1.56 22.67"></path><path class="eng-4" d="M827.39 377.67c7.31 4.64 11.67 13.44 11.25 22.09-.35 7.05-3.75 13.89-9.16 18.42-5.41 4.53-12.75 6.67-19.74 5.77"></path><path class="eng-4" d="M813 414.46c0 8.78-8.42 12.81-15.73 12.81-10.22 0-18.28-7.46-18.28-14.51M786.36 356.6c-.8 2.39-1.38 13.02 5.05 19.46 6.44 6.44 10.63.27 10.63-4.81M327.2 265.29c0-22.44-8.25-37.74-18.6-42.64"></path><path class="eng-11" d="M453.57 174.19c-2.85 7.12 8.28 9.34 9.83 13.79 2.51 7.18-15.17.34-19.74-10.33l9.91-3.46Z"></path><path class="eng-2" d="M453.57 174.19c-2.85 7.12 8.28 9.34 9.83 13.79 2.51 7.18-15.17.34-19.74-10.33"></path><path class="eng-13" d="M239.58 239.87c-15.16 10.43-37.13 28.01-46.3 54.24-13.72 39.26 26.99 66.41 26.99 66.41 7.35-12.87 11.12-13.34 24.03-17.73 0 0-28.4-20.96-20.78-42.79 4.69-13.41 30.41-33.64 30.41-33.64l.93-11.43 4.34-14.02 11.02-11.42c-13.46-3.15-26.92 7.82-30.64 10.38Z"></path><path class="eng-3" d="M255.36 231.05s-12.06 6.25-15.78 8.81c-15.16 10.43-37.13 28.01-46.3 54.24-13.72 39.26 26.99 66.41 26.99 66.41 7.35-12.87 11.12-13.34 24.03-17.73 0 0-28.4-20.96-20.78-42.79 4.69-13.41 28.59-32.77 28.59-32.77"></path><path class="eng-4" d="M270.22 229.48c-8.89 4.39-15.5 15.8-16.3 38.22-.49 13.81-3.94 55.15-3.94 55.15s15.76 3.86 25.46 1.58"></path><path class="eng-7" d="M506.38 252.97c-10.37-1.21-18.61-10.81-19.65-22.87h-.22c-1.04 12.06-9.29 21.66-19.65 22.87v.26c10.37 1.21 18.61 10.81 19.65 22.87h.22c1.04-12.06 9.29-21.66 19.65-22.87v-.26Z"></path><path class="ted-6" d="M609.63 502.48c-10.37-1.21-18.61-10.81-19.65-22.87h-.22c-1.04 12.06-9.29 21.66-19.65 22.87v.26c10.37 1.21 18.61 10.81 19.65 22.87h.22c1.04-12.06 9.29-21.66 19.65-22.87v-.26Z"></path><path class="eng-7" d="M228.72 513.07c-10.37-1.21-18.61-10.81-19.65-22.87h-.22c-1.04 12.06-9.29 21.66-19.65 22.87v.26c10.37 1.21 18.61 10.81 19.65 22.87h.22c1.04-12.06 9.29-21.66 19.65-22.87v-.26ZM648.4 461.19c-5.68-.66-10.19-5.92-10.77-12.53h-.12c-.57 6.61-5.09 11.86-10.77 12.53v.14c5.68.66 10.19 5.92 10.77 12.53h.12c.57-6.61 5.09-11.86 10.77-12.53v-.14Z"></path><path class="ted-6" d="M198.95 452.78c-5.68-.66-10.19-5.92-10.77-12.53h-.12c-.57 6.61-5.09 11.86-10.77 12.53v.14c5.68.66 10.19 5.92 10.77 12.53h.12c.57-6.61 5.09-11.86 10.77-12.53v-.14ZM751.19 265.22c-5.68-.66-10.19-5.92-10.77-12.53h-.12c-.57 6.61-5.09 11.86-10.77 12.53v.14c5.68.66 10.19 5.92 10.77 12.53h.12c.57-6.61 5.09-11.86 10.77-12.53v-.14Z"></path><path class="eng-7" d="M637.57 596.99c-5.68-.66-10.19-5.92-10.77-12.53h-.12c-.57 6.61-5.09 11.86-10.77 12.53v.14c5.68.66 10.19 5.92 10.77 12.53h.12c.57-6.61 5.09-11.86 10.77-12.53v-.14Z"></path><path class="ted-6" d="M392.05 338.49c-5.68-.66-10.19-5.92-10.77-12.53h-.12c-.57 6.61-5.09 11.86-10.77 12.53v.14c5.68.66 10.19 5.92 10.77 12.53h.12c.57-6.61 5.09-11.86 10.77-12.53v-.14ZM566.76 149.35c-5.68-.66-10.19-5.92-10.77-12.53h-.12c-.57 6.61-5.09 11.86-10.77 12.53v.14c5.68.66 10.19 5.92 10.77 12.53h.12c.57-6.61 5.09-11.86 10.77-12.53v-.14Z"></path><path class="eng-7" d="M464.49 373.24c-5.68-.66-10.19-5.92-10.77-12.53h-.12c-.57 6.61-5.09 11.86-10.77 12.53v.14c5.68.66 10.19 5.92 10.77 12.53h.12c.57-6.61 5.09-11.86 10.77-12.53v-.14Z"></path></svg>