<?xml version="1.0" encoding="utf-8"?>
<!-- Generator: Adobe Illustrator 24.0.2, SVG Export Plug-In . SVG Version: 6.00 Build 0)  -->
<svg version="1.1" id="Layer_1" xmlns="http://www.w3.org/2000/svg" xmlns:xlink="http://www.w3.org/1999/xlink" x="0px" y="0px"
	 viewBox="0 0 400 400" style="enable-background:new 0 0 400 400;" xml:space="preserve">
<style type="text/css">
	.st0{fill:#FFFFFF;}
	.st1{clip-path:url(#SVGID_2_);fill:#FBBC05;}
	.st2{clip-path:url(#SVGID_4_);fill:#EA4335;}
	.st3{clip-path:url(#SVGID_6_);fill:#34A853;}
	.st4{clip-path:url(#SVGID_8_);fill:#4285F4;}
</style>
<rect class="st0" width="400" height="400"/>
<g>
	<g>
		<defs>
			<path id="SVGID_1_" d="M326,176H203v51h70.8c-6.6,32.4-34.2,51-70.8,51c-43.2,0-78-34.8-78-78s34.8-78,78-78
				c18.6,0,35.4,6.6,48.6,17.4L290,101c-23.4-20.4-53.4-33-87-33c-73.2,0-132,58.8-132,132s58.8,132,132,132c66,0,126-48,126-132
				C329,192.2,327.8,183.8,326,176z"/>
		</defs>
		<clipPath id="SVGID_2_">
			<use xlink:href="#SVGID_1_"  style="overflow:visible;"/>
		</clipPath>
		<path class="st1" d="M59,278V122l102,78L59,278z"/>
	</g>
	<g>
		<defs>
			<path id="SVGID_3_" d="M326,176H203v51h70.8c-6.6,32.4-34.2,51-70.8,51c-43.2,0-78-34.8-78-78s34.8-78,78-78
				c18.6,0,35.4,6.6,48.6,17.4L290,101c-23.4-20.4-53.4-33-87-33c-73.2,0-132,58.8-132,132s58.8,132,132,132c66,0,126-48,126-132
				C329,192.2,327.8,183.8,326,176z"/>
		</defs>
		<clipPath id="SVGID_4_">
			<use xlink:href="#SVGID_3_"  style="overflow:visible;"/>
		</clipPath>
		<path class="st2" d="M59,122l102,78l42-36.6L347,140V56H59V122z"/>
	</g>
	<g>
		<defs>
			<path id="SVGID_5_" d="M326,176H203v51h70.8c-6.6,32.4-34.2,51-70.8,51c-43.2,0-78-34.8-78-78s34.8-78,78-78
				c18.6,0,35.4,6.6,48.6,17.4L290,101c-23.4-20.4-53.4-33-87-33c-73.2,0-132,58.8-132,132s58.8,132,132,132c66,0,126-48,126-132
				C329,192.2,327.8,183.8,326,176z"/>
		</defs>
		<clipPath id="SVGID_6_">
			<use xlink:href="#SVGID_5_"  style="overflow:visible;"/>
		</clipPath>
		<path class="st3" d="M59,278l180-138l47.4,6L347,56v288H59V278z"/>
	</g>
	<g>
		<defs>
			<path id="SVGID_7_" d="M326,176H203v51h70.8c-6.6,32.4-34.2,51-70.8,51c-43.2,0-78-34.8-78-78s34.8-78,78-78
				c18.6,0,35.4,6.6,48.6,17.4L290,101c-23.4-20.4-53.4-33-87-33c-73.2,0-132,58.8-132,132s58.8,132,132,132c66,0,126-48,126-132
				C329,192.2,327.8,183.8,326,176z"/>
		</defs>
		<clipPath id="SVGID_8_">
			<use xlink:href="#SVGID_7_"  style="overflow:visible;"/>
		</clipPath>
		<path class="st4" d="M347,344L161,200l-24-18l210-60V344z"/>
	</g>
</g>
</svg>
