<svg version="1.1" xmlns="http://www.w3.org/2000/svg" x="0px" y="0px" viewBox="0 28 28" fill="rgb(47,199,84)" width="28" height="28" class="sc-fde3cc39-0 iJIytI   "><path class="mark" d="M25.2,14c0,3.7-1.8,7.2-4.9,9.2c1.3-2.4,2-5.7,2-9.2h-2.8c0,4.5-1.7,9.5-4.2,10.8V0L14,0C6.3,0,0,6.3,0,14  s6.3,14,14,14s14-6.3,14-14H25.2z M8.4,14c0-4.5,1.7-9.5,4.2-10.8v21.7C10.1,23.5,8.4,18.5,8.4,14z M2.8,14c0-3.7,1.8-7.2,4.9-9.2  c-1.3,2.4-2,5.7-2,9.2s0.8,6.8,2,9.2C4.6,21.2,2.8,17.7,2.8,14z"></path><path class="mark" d="M17.6,0v2.8h6C16.7,8.1,12.6,16.3,12.6,25v0.4h2.8V25c0-7.8,3.6-15.2,9.8-19.9v5.4H28V0H17.6z"></path></svg>