<?xml version="1.0" encoding="utf-8"?>
<!-- Generator: Adobe Illustrator 24.0.2, SVG Export Plug-In . SVG Version: 6.00 Build 0)  -->
<svg version="1.1" id="Layer_1" xmlns="http://www.w3.org/2000/svg" xmlns:xlink="http://www.w3.org/1999/xlink" x="0px" y="0px"
	 viewBox="0 0 400 400" style="enable-background:new 0 0 400 400;" xml:space="preserve">
<style type="text/css">
	.st0{fill:#FFFFFF;}
	.st1{fill-rule:evenodd;clip-rule:evenodd;fill:#42B0D5;}
	.st2{fill-rule:evenodd;clip-rule:evenodd;fill:#FFFFFE;}
</style>
<rect class="st0" width="400" height="400"/>
<g>
	<path id="Fill-10" class="st1" d="M300,281.5c0,13.3-10.8,24.1-24.1,24.1H124.1c-13.3,0-24.1-10.8-24.1-24.1V118.5
		c0-13.3,10.8-24.1,24.1-24.1h151.9c13.3,0,24.1,10.8,24.1,24.1V281.5"/>
	<polyline id="Fill-11" class="st2" points="231.9,194.5 271.3,145 271.2,144.9 214.2,172.3 200.1,110.6 199.9,110.6 185.8,172.3 
		128.8,144.9 128.7,145 168.1,194.5 111.1,222 111.1,222.2 174.4,222.2 160.3,283.9 160.5,284 200,234.5 239.5,284 239.7,283.9 
		225.6,222.2 288.9,222.2 288.9,222 231.9,194.5 	"/>
</g>
</svg>
