<?xml version="1.0" encoding="utf-8"?>
<!-- Generator: Adobe Illustrator 24.0.2, SVG Export Plug-In . SVG Version: 6.00 Build 0)  -->
<svg version="1.1" id="Layer_1" xmlns="http://www.w3.org/2000/svg" xmlns:xlink="http://www.w3.org/1999/xlink" x="0px" y="0px"
	 viewBox="0 0 400 400" style="enable-background:new 0 0 400 400;" xml:space="preserve">
<style type="text/css">
	.st0{fill:#F9F8F6;}
	.st1{fill:#FF5A00;}
	.st2{fill:#EB001B;}
	.st3{fill:#F79E1B;}
</style>
<rect class="st0" width="400" height="400"/>
<g>
	<rect id="rect19" x="166.1" y="139.2" class="st1" width="67.7" height="121.5"/>
	<path id="XMLID_330_" class="st2" d="M170.6,200c0-24.7,11.6-46.6,29.4-60.8c-13.1-10.3-29.6-16.5-47.7-16.5
		c-42.7,0-77.3,34.6-77.3,77.3s34.6,77.3,77.3,77.3c18,0,34.6-6.2,47.7-16.5C182.2,246.8,170.6,224.7,170.6,200z"/>
	<path id="path22" class="st3" d="M325,200c0,42.7-34.6,77.3-77.3,77.3c-18,0-34.6-6.2-47.7-16.5c18-14.2,29.4-36.1,29.4-60.8
		s-11.6-46.6-29.4-60.8c13.1-10.3,29.6-16.5,47.7-16.5C290.4,122.7,325,157.5,325,200z"/>
</g>
</svg>
