<?xml version="1.0" encoding="utf-8"?>
<!-- Generator: Adobe Illustrator 24.0.2, SVG Export Plug-In . SVG Version: 6.00 Build 0)  -->
<svg version="1.1"
	 id="Layer_1" xmlns:cc="http://creativecommons.org/ns#" xmlns:rdf="http://www.w3.org/1999/02/22-rdf-syntax-ns#"
	 xmlns="http://www.w3.org/2000/svg" xmlns:xlink="http://www.w3.org/1999/xlink" x="0px" y="0px" viewBox="0 0 400 400"
	 style="enable-background:new 0 0 400 400;" xml:space="preserve">
<style type="text/css">
	.st0{fill:#FFFFFF;}
	.st1{fill:#0081FB;}
	.st2{fill:url(#Logo1_1_);}
	.st3{fill:url(#Logo2_1_);}
</style>
<rect class="st0" width="400" height="400"/>
<desc>Logo of Meta Platforms -- Graphic created by Detmar Owen</desc>
<g>
	<path id="Logo0" class="st1" d="M98.1,227.5c0,9.9,2.2,17.5,5,22.2c3.7,6,9.3,8.6,15,8.6c7.3,0,14-1.8,26.9-19.7
		c10.3-14.3,22.5-34.4,30.7-47l13.9-21.3c9.6-14.8,20.8-31.3,33.6-42.5c10.5-9.1,21.7-14.2,33.1-14.2c19.1,0,37.2,11,51.1,31.7
		C322.6,168,330,196.5,330,226c0,17.5-3.5,30.4-9.3,40.6c-5.7,9.8-16.7,19.7-35.4,19.7v-28c15.9,0,19.9-14.6,19.9-31.4
		c0-23.9-5.6-50.4-17.8-69.3c-8.7-13.4-20-21.6-32.4-21.6c-13.4,0-24.2,10.1-36.4,28.2c-6.5,9.6-13.1,21.3-20.5,34.5l-8.2,14.5
		c-16.5,29.2-20.6,35.8-28.9,46.8c-14.4,19.2-26.7,26.5-42.9,26.5c-19.2,0-31.4-8.3-38.9-20.9C73,255.2,70,241.8,70,226.5
		L98.1,227.5z"/>
	
		<linearGradient id="Logo1_1_" gradientUnits="userSpaceOnUse" x1="126.3589" y1="606.3665" x2="305.3824" y2="615.408" gradientTransform="matrix(1 0 0 1 0 -410.84)">
		<stop  offset="0" style="stop-color:#0064E1"/>
		<stop  offset="0.4" style="stop-color:#0064E1"/>
		<stop  offset="0.83" style="stop-color:#0073EE"/>
		<stop  offset="1" style="stop-color:#0082FB"/>
	</linearGradient>
	<path id="Logo1" class="st2" d="M92.1,147.4c12.9-19.8,31.5-33.7,52.8-33.7c12.3,0,24.6,3.7,37.4,14.1c14,11.4,29,30.3,47.6,61.3
		l6.7,11.1c16.1,26.9,25.3,40.7,30.7,47.2c6.9,8.4,11.7,10.9,18,10.9c15.9,0,19.9-14.6,19.9-31.4l24.8-0.8c0,17.5-3.5,30.4-9.3,40.6
		c-5.7,9.8-16.7,19.7-35.4,19.7c-11.6,0-21.8-2.5-33.2-13.2c-8.7-8.2-18.9-22.8-26.7-35.9l-23.3-39c-11.7-19.5-22.4-34.1-28.6-40.7
		c-6.7-7.1-15.3-15.7-29-15.7c-11.1,0-20.5,7.8-28.4,19.7L92.1,147.4z"/>
	
		<linearGradient id="Logo2_1_" gradientUnits="userSpaceOnUse" x1="107.45" y1="650.1209" x2="107.45" y2="584.1173" gradientTransform="matrix(1 0 0 1 0 -410.84)">
		<stop  offset="0" style="stop-color:#0082FB"/>
		<stop  offset="1" style="stop-color:#0064E0"/>
	</linearGradient>
	<path id="Logo2" class="st3" d="M144.5,141.9c-11.1,0-20.5,7.8-28.4,19.7c-11.1,16.8-18,41.9-18,66c0,9.9,2.2,17.5,5,22.2
		l-23.9,15.8C73,255.2,70,241.8,70,226.5c0-27.8,7.6-56.8,22.1-79.2c12.9-19.8,31.5-33.7,52.8-33.7L144.5,141.9z"/>
</g>
</svg>
