<?xml version="1.0" encoding="utf-8"?>
<!-- Generator: Adobe Illustrator 24.0.2, SVG Export Plug-In . SVG Version: 6.00 Build 0)  -->
<svg version="1.1" id="Layer_1" xmlns="http://www.w3.org/2000/svg" xmlns:xlink="http://www.w3.org/1999/xlink" x="0px" y="0px"
	 viewBox="0 0 334 334" style="enable-background:new 0 0 334 334;" xml:space="preserve">
<style type="text/css">
	.st0{fill:#384458;}
	.st1{fill:#FFFFFF;}
	.st2{fill:none;stroke:#FFFFFF;stroke-width:8.6082;}
	.st3{fill:none;stroke:#FFFFFF;stroke-width:5.1649;}
</style>
<circle class="st0" cx="167" cy="167" r="167"/>
<path class="st1" d="M231.7,166.5c0,22.3-11.3,42-28.4,53.8c7.4-14.2,11.9-33,11.9-53.8H199c0,26.3-9.7,55.1-24.4,63.1V85.2
	l-8.1-0.1c-44.9,0-81.4,36.5-81.4,81.4s36.5,81.4,81.4,81.4s81.4-36.5,81.4-81.4H231.7L231.7,166.5z M134,166.5
	c0-26.3,9.7-55.1,24.4-63.1v126.1C143.7,221.6,134,192.8,134,166.5L134,166.5z M101.3,166.5c0-22.3,11.3-42,28.4-53.8
	c-7.4,14.2-11.9,33-11.9,53.8s4.5,39.5,11.9,53.8C112.5,208.5,101.3,188.8,101.3,166.5z"/>
<path class="st1" d="M187.4,85.1v16.2H222c-39.8,30.6-63.6,78.6-63.6,129v2.2h16.2v-2.2c0-45.3,21.3-88.5,57.1-116v31.4H248V85.1
	H187.4L187.4,85.1z"/>
<path class="st1" d="M51.1,216.4l15.8-7.7l1.3,2.7l-7.6,12.8l11.1-5.4l1.3,2.7l-15.8,7.7l-1.3-2.7l7.6-12.8l-11.1,5.4L51.1,216.4z"
	/>
<path class="st1" d="M60.6,234.4l14.5-10l6.4,9.4l-2.3,1.6l-4.8-6.9l-3.6,2.5l3.9,5.7l-2.3,1.6l-3.9-5.7l-4.1,2.8l4.8,6.9l-2.3,1.6
	L60.6,234.4L60.6,234.4z"/>
<path class="st1" d="M73.4,251.3l11-10l-3.8-4.2l2-1.9l9.7,10.6l-2,1.9l-3.8-4.2l-11,10L73.4,251.3L73.4,251.3z"/>
<path class="st1" d="M86.7,264.5l0.2-0.3l15.6-6.4l-6.5-4.8l1.6-2.2l10.6,7.8l-0.2,0.3l-15.5,6.4l6.7,5l-1.7,2.2L86.7,264.5
	L86.7,264.5z"/>
<path class="st1" d="M102.7,275.7l8.4-15.5l10,5.4l-1.3,2.4l-7.4-4l-2.1,3.8l6.1,3.3l-1.3,2.4l-6.1-3.3l-2.4,4.4l7.4,4l-1.3,2.4
	L102.7,275.7L102.7,275.7z"/>
<path class="st1" d="M117.9,283.5l6-16.5l6.8,2.5c0.2,0.1,0.4,0.1,0.6,0.2c0.2,0.1,0.5,0.2,0.7,0.3c0.9,0.5,1.6,1.1,2,1.8
	c0.4,0.7,0.7,1.5,0.7,2.4c0,0.9-0.1,1.7-0.5,2.6c-0.5,1.3-1.3,2.4-2.3,3.1c-1,0.7-2.3,0.9-3.8,0.6l-1.2-0.3l-4.2-1.6l-2.1,5.8
	L117.9,283.5L117.9,283.5z M123.7,276.1l3.9,1.4c0.2,0.1,0.3,0.1,0.5,0.2c0.2,0,0.4,0.1,0.6,0.1c0.5,0.1,0.9,0,1.3-0.2
	c0.4-0.2,0.7-0.5,0.9-0.8c0.2-0.3,0.4-0.7,0.6-1c0.1-0.4,0.2-0.7,0.2-1.1c0-0.4,0-0.8-0.2-1.2c-0.2-0.4-0.4-0.7-0.9-1
	c-0.1-0.1-0.3-0.2-0.5-0.3c-0.2-0.1-0.4-0.1-0.5-0.2l-3.9-1.4L123.7,276.1L123.7,276.1z M127.3,286.9l-0.8-7.9l3,0.4l0.9,8.6
	L127.3,286.9L127.3,286.9z"/>
<path class="st1" d="M143.2,291.4c-1.7-0.3-3.1-1-4.2-2c-1.1-1-1.8-2.2-2.2-3.7c-0.4-1.5-0.4-3.1-0.1-4.9c0.3-1.8,1-3.3,1.9-4.5
	c0.9-1.2,2.1-2.1,3.4-2.6c1.4-0.5,2.9-0.6,4.7-0.3c1.7,0.3,3.1,1,4.2,2c1.1,1,1.8,2.2,2.2,3.7c0.4,1.5,0.4,3.1,0.1,4.9
	c-0.3,1.8-1,3.3-1.9,4.5c-0.9,1.2-2.1,2.1-3.4,2.6S144.9,291.7,143.2,291.4L143.2,291.4z M143.7,288.7c1.2,0.2,2.2,0.2,3-0.2
	c0.9-0.4,1.6-1,2.2-1.9c0.6-0.9,1-1.9,1.2-3.2c0.2-1.3,0.3-2.4,0-3.4c-0.2-1-0.7-1.8-1.3-2.5c-0.7-0.7-1.6-1.1-2.7-1.4
	c-1.2-0.2-2.2-0.2-3,0.2c-0.9,0.4-1.6,1-2.1,1.9c-0.6,0.9-1,1.9-1.2,3.2c-0.2,1.3-0.3,2.4-0.1,3.4c0.2,1,0.6,1.8,1.3,2.5
	C141.6,288,142.5,288.4,143.7,288.7L143.7,288.7z"/>
<path class="st1" d="M167.6,293.4l-6.1-17.3l3.1-0.2l4.2,12.5l2.8-12.9l3.1-0.2l4.2,12.5l2.8-12.9l3.1-0.2l-4.1,17.8l-2.9,0.2
	l-4.3-12.3l-2.9,12.7L167.6,293.4L167.6,293.4z"/>
<path class="st1" d="M190.6,291l-3.5-17.2l2.9-0.6l3.5,17.2L190.6,291z"/>
<path class="st1" d="M203.4,287.9l-4.5-14.1l-5.4,1.7l-0.8-2.6l13.7-4.3l0.8,2.6l-5.4,1.7l4.5,14.1L203.4,287.9L203.4,287.9z"/>
<path class="st1" d="M216.1,283.5l-7.8-15.8l2.6-1.3l3.3,6.6l7.5-3.7l-3.3-6.6l2.6-1.3l7.8,15.8l-2.6,1.3l-3.3-6.7l-7.5,3.7l3.3,6.7
	L216.1,283.5L216.1,283.5z"/>
<path class="st1" d="M239.7,270.1l-10.9-13.8l5.5-4.3c0.9-0.7,1.8-1.2,2.7-1.3c0.9-0.1,1.7,0,2.5,0.4s1.4,0.8,1.9,1.5
	c0.6,0.8,0.9,1.5,1,2.4s-0.1,1.6-0.6,2.2l-0.4-0.5c1-0.5,2-0.6,3-0.3c0.9,0.3,1.7,0.8,2.4,1.6c0.6,0.8,1.1,1.7,1.2,2.5
	c0.2,0.9,0.1,1.7-0.3,2.5c-0.3,0.8-1,1.6-1.9,2.3L239.7,270.1L239.7,270.1z M235.5,260l3.1-2.5c0.3-0.3,0.6-0.6,0.7-0.9
	c0.2-0.3,0.2-0.7,0.2-1.1c0-0.4-0.2-0.7-0.5-1.1c-0.4-0.5-0.8-0.8-1.4-0.8c-0.6-0.1-1.1,0.1-1.7,0.5l-3.1,2.4L235.5,260L235.5,260z
	 M240.4,266.1l3.4-2.7c0.4-0.3,0.7-0.7,0.9-1.1c0.2-0.4,0.3-0.8,0.2-1.3c0-0.4-0.2-0.9-0.6-1.3c-0.3-0.4-0.6-0.6-1-0.8
	c-0.4-0.2-0.8-0.2-1.3-0.2c-0.4,0.1-0.9,0.3-1.3,0.6l-3.5,2.7L240.4,266.1L240.4,266.1z"/>
<path class="st1" d="M253.7,258.5L241,246.3l7.8-8.2l2,1.9l-5.8,6.1l3.1,3l4.8-5l2,1.9l-4.8,5l3.6,3.4l5.8-6.1l2,1.9L253.7,258.5
	L253.7,258.5z"/>
<path class="st1" d="M265.3,245.9l-14.4-10.1l1.7-2.4l14.8,0.5l-10.1-7.1l1.7-2.4l14.4,10.1l-1.7,2.4l-14.8-0.5l10.1,7.1
	L265.3,245.9L265.3,245.9z"/>
<path class="st1" d="M276.7,228.8l-15.8-7.7l2.5-5c0.1-0.1,0.2-0.4,0.4-0.8c0.2-0.4,0.4-0.8,0.6-1.1c0.8-1.2,1.7-2,2.9-2.5
	c1.1-0.5,2.4-0.7,3.7-0.6c1.3,0.1,2.7,0.5,4,1.1c1.3,0.7,2.5,1.5,3.4,2.5c0.9,1,1.5,2.1,1.8,3.3c0.3,1.2,0.2,2.5-0.2,3.8
	c-0.1,0.4-0.3,0.8-0.5,1.2c-0.2,0.4-0.3,0.7-0.4,0.8L276.7,228.8L276.7,228.8z M275.5,224.9l1.1-2.4c0.1-0.2,0.2-0.5,0.4-0.8
	c0.2-0.4,0.3-0.7,0.3-1c0.2-0.8,0.2-1.6-0.1-2.3c-0.3-0.7-0.8-1.4-1.4-2c-0.6-0.6-1.4-1.1-2.2-1.5c-0.9-0.4-1.7-0.7-2.6-0.8
	c-0.9-0.1-1.7-0.1-2.4,0.1s-1.4,0.7-1.9,1.3c-0.2,0.2-0.4,0.5-0.5,0.9c-0.2,0.3-0.3,0.6-0.4,0.8l-1.1,2.4L275.5,224.9L275.5,224.9z"
	/>
<circle class="st2" cx="167" cy="167" r="148.8"/>
<path class="st3" d="M57.3,193.3c-2.4-9.2-3.6-18.8-3.6-28.7c0-62.9,50.8-114,113.4-114c23.6,0,45.5,7.2,63.6,19.6 M276.7,193.3
	c2.4-9.2,3.6-18.8,3.6-28.7c0-23.6-7.1-45.5-19.3-63.7"/>
</svg>
