<?xml version="1.0" encoding="utf-8"?>
<!-- Generator: Adobe Illustrator 24.0.2, SVG Export Plug-In . SVG Version: 6.00 Build 0)  -->
<svg version="1.1"
	 id="Layer_1" xmlns:cc="http://creativecommons.org/ns#" xmlns:dc="http://purl.org/dc/elements/1.1/" xmlns:rdf="http://www.w3.org/1999/02/22-rdf-syntax-ns#"
	 xmlns="http://www.w3.org/2000/svg" xmlns:xlink="http://www.w3.org/1999/xlink" x="0px" y="0px" viewBox="0 0 400 400"
	 style="enable-background:new 0 0 400 400;" xml:space="preserve">
<style type="text/css">
	.st0{fill-rule:evenodd;clip-rule:evenodd;fill:#FFFFFF;}
	.st1{filter:url(#Adobe_OpacityMaskFilter);}
	.st2{mask:url(#b_2_);fill-rule:evenodd;clip-rule:evenodd;fill:#00A1E0;}
</style>
<title>Salesforce.com logo</title>
<desc>A cloud computing company based in San Francisco, California, United States</desc>
<rect class="st0" width="400" height="400"/>
<defs>
	<filter id="Adobe_OpacityMaskFilter" filterUnits="userSpaceOnUse" x="63.9" y="104.7" width="272.1" height="190.5">
		<feColorMatrix  type="matrix" values="1 0 0 0 0  0 1 0 0 0  0 0 1 0 0  0 0 0 1 0"/>
	</filter>
</defs>
<mask maskUnits="userSpaceOnUse" x="63.9" y="104.7" width="272.1" height="190.5" id="b_2_">
	<g class="st1">
		<path id="a_2_" class="st0" d="M64.2,104.7h272v190h-272L64.2,104.7z"/>
	</g>
</mask>
<path class="st2" d="M177.2,125.5c8.8-9.1,21-14.8,34.5-14.8c18,0,33.6,10,42,24.9c7.5-3.3,15.5-5.1,23.7-5.1
	c32.4,0,58.7,26.5,58.7,59.2s-26.3,59.2-58.7,59.2c-4,0-7.8-0.4-11.6-1.1c-7.4,13.1-21.4,22-37.4,22c-6.5,0-12.9-1.5-18.8-4.3
	c-7.4,17.5-24.8,29.8-45,29.8c-21.1,0-39-13.3-45.9-32c-3.1,0.6-6.2,1-9.3,1c-25.1,0-45.4-20.6-45.4-45.9c0-17,9.1-31.8,22.7-39.8
	c-2.9-6.6-4.4-13.8-4.3-21c0-29.2,23.7-52.8,52.9-52.8C152.3,104.7,167.6,112.9,177.2,125.5"/>
</svg>
