<?xml version="1.0" encoding="utf-8"?>
<!-- Generator: Adobe Illustrator 24.0.2, SVG Export Plug-In . SVG Version: 6.00 Build 0)  -->
<svg version="1.1" id="Layer_1" xmlns="http://www.w3.org/2000/svg" xmlns:xlink="http://www.w3.org/1999/xlink" x="0px" y="0px"
	 viewBox="0 100 960 600" style="enable-background:new 0 0 960 832;" xml:space="preserve">
<style type="text/css">
	.st0{fill:none;}
	.st1{fill:#2DC653;}
	.st2{fill:none;stroke:#231F20;stroke-width:2;stroke-miterlimit:10;}
	.st3{fill:#2DC653;stroke:#231F20;stroke-width:2;stroke-miterlimit:10;}
	.st4{fill:#F3FCF5;stroke:#231F20;stroke-width:2;stroke-miterlimit:10;}
	.st5{fill:url(#_x31_0_dpi_30_x25__2);stroke:#231F20;stroke-width:2;stroke-miterlimit:10;}
</style>
<pattern  x="-1600.6" y="-791.1" width="28.8" height="28.8" patternUnits="userSpaceOnUse" id="_x31_0_dpi_30_x25__2" viewBox="2.6 -31.4 28.8 28.8" style="overflow:visible;">
	<g>
		<rect x="2.6" y="-31.4" class="st0" width="28.8" height="28.8"/>
		<g>
			<path class="st1" d="M31.4,0C32.8,0,34-1.2,34-2.6c0-1.4-1.2-2.6-2.6-2.6c-1.4,0-2.6,1.2-2.6,2.6C28.8-1.2,30,0,31.4,0z"/>
			<path class="st1" d="M17,0c1.4,0,2.6-1.2,2.6-2.6c0-1.4-1.2-2.6-2.6-2.6c-1.4,0-2.6,1.2-2.6,2.6C14.4-1.2,15.6,0,17,0z"/>
			<path class="st1" d="M31.4-14.4c1.4,0,2.6-1.2,2.6-2.6c0-1.4-1.2-2.6-2.6-2.6c-1.4,0-2.6,1.2-2.6,2.6
				C28.8-15.6,30-14.4,31.4-14.4z"/>
			<path class="st1" d="M17-14.4c1.4,0,2.6-1.2,2.6-2.6c0-1.4-1.2-2.6-2.6-2.6c-1.4,0-2.6,1.2-2.6,2.6C14.4-15.6,15.6-14.4,17-14.4z
				"/>
			<path class="st1" d="M9.8-7.2c1.4,0,2.6-1.2,2.6-2.6c0-1.4-1.2-2.6-2.6-2.6c-1.4,0-2.6,1.2-2.6,2.6C7.2-8.4,8.4-7.2,9.8-7.2z"/>
			<path class="st1" d="M24.2-7.2c1.4,0,2.6-1.2,2.6-2.6c0-1.4-1.2-2.6-2.6-2.6c-1.4,0-2.6,1.2-2.6,2.6C21.6-8.4,22.8-7.2,24.2-7.2z
				"/>
			<path class="st1" d="M9.8-21.6c1.4,0,2.6-1.2,2.6-2.6c0-1.4-1.2-2.6-2.6-2.6c-1.4,0-2.6,1.2-2.6,2.6C7.2-22.8,8.4-21.6,9.8-21.6z
				"/>
			<path class="st1" d="M24.2-21.6c1.4,0,2.6-1.2,2.6-2.6c0-1.4-1.2-2.6-2.6-2.6c-1.4,0-2.6,1.2-2.6,2.6
				C21.6-22.8,22.8-21.6,24.2-21.6z"/>
		</g>
		<g>
			<path class="st1" d="M2.6,0C4,0,5.2-1.2,5.2-2.6C5.2-4,4-5.2,2.6-5.2C1.2-5.2,0-4,0-2.6C0-1.2,1.2,0,2.6,0z"/>
			<path class="st1" d="M2.6-14.4c1.4,0,2.6-1.2,2.6-2.6c0-1.4-1.2-2.6-2.6-2.6C1.2-19.6,0-18.4,0-17C0-15.6,1.2-14.4,2.6-14.4z"/>
		</g>
		<g>
			<path class="st1" d="M31.4-28.8c1.4,0,2.6-1.2,2.6-2.6c0-1.4-1.2-2.6-2.6-2.6c-1.4,0-2.6,1.2-2.6,2.6C28.8-30,30-28.8,31.4-28.8z
				"/>
			<path class="st1" d="M17-28.8c1.4,0,2.6-1.2,2.6-2.6c0-1.4-1.2-2.6-2.6-2.6c-1.4,0-2.6,1.2-2.6,2.6C14.4-30,15.6-28.8,17-28.8z"
				/>
		</g>
		<g>
			<path class="st1" d="M2.6-28.8c1.4,0,2.6-1.2,2.6-2.6C5.2-32.8,4-34,2.6-34C1.2-34,0-32.8,0-31.4C0-30,1.2-28.8,2.6-28.8z"/>
		</g>
	</g>
</pattern>
<line class="st2" x1="208.1" y1="523.8" x2="280.7" y2="523.8"/>
<line class="st2" x1="533.4" y1="182.2" x2="620.1" y2="182.2"/>
<path class="st3" d="M480,166c-138.1,0-250,111.9-250,250s111.9,250,250,250c138.1,0,250-111.9,250-250S618.1,166,480,166z M480,616
	c-110.5,0-200-89.5-200-200s89.5-200,200-200c110.5,0,200,89.5,200,200S590.5,616,480,616z"/>
<line class="st2" x1="681.8" y1="308.2" x2="754.4" y2="308.2"/>
<path class="st4" d="M626.9,213.7l-29.4,40.5c50,36.4,82.4,95.3,82.4,161.8h50C730,332.9,689.4,259.2,626.9,213.7z"/>
<path class="st5" d="M626.9,213.7l-29.4,40.5c50,36.4,82.4,95.3,82.4,161.8h50C730,332.9,689.4,259.2,626.9,213.7z"/>
<path class="st4" d="M480,216c43.9,0,84.6,14.2,117.6,38.2l29.4-40.5c-41.2-30-92-47.7-146.9-47.7V216z"/>
<g>
	<g>
		<path d="M638.2,191.5c-1.3,0-2.4-0.2-3.5-0.7c-1-0.5-1.9-1.1-2.5-1.9c-0.7-0.8-1.1-1.8-1.3-3l3.4-0.5c0.2,1,0.7,1.8,1.5,2.3
			c0.8,0.5,1.6,0.8,2.6,0.8c0.5,0,1.1-0.1,1.6-0.3s0.9-0.4,1.2-0.7c0.3-0.3,0.5-0.7,0.5-1.2c0-0.2,0-0.3-0.1-0.5
			c-0.1-0.2-0.1-0.3-0.3-0.5s-0.3-0.3-0.5-0.4c-0.2-0.1-0.5-0.2-0.8-0.3l-4.5-1.3c-0.3-0.1-0.7-0.2-1.2-0.4
			c-0.4-0.2-0.9-0.4-1.3-0.8s-0.8-0.8-1-1.3s-0.4-1.2-0.4-2c0-1.2,0.3-2.1,0.9-2.9s1.4-1.3,2.3-1.7c1-0.4,2.1-0.6,3.2-0.6
			c1.2,0,2.3,0.2,3.2,0.6c0.9,0.4,1.7,1,2.4,1.7s1.1,1.7,1.4,2.7l-3.5,0.6c-0.1-0.6-0.4-1-0.7-1.4c-0.3-0.4-0.8-0.7-1.2-0.9
			c-0.5-0.2-1-0.3-1.5-0.3c-0.5,0-1,0.1-1.4,0.2c-0.5,0.2-0.8,0.4-1.1,0.7c-0.3,0.3-0.4,0.6-0.4,1.1c0,0.4,0.1,0.7,0.3,0.9
			c0.2,0.2,0.5,0.4,0.9,0.6c0.4,0.1,0.7,0.3,1.1,0.4l3,0.8c0.4,0.1,0.9,0.3,1.5,0.5c0.5,0.2,1.1,0.5,1.6,0.8s0.9,0.8,1.2,1.4
			c0.3,0.6,0.5,1.3,0.5,2.2c0,0.9-0.2,1.7-0.6,2.4c-0.4,0.7-0.9,1.3-1.6,1.7c-0.7,0.5-1.4,0.8-2.2,1
			C639.9,191.4,639.1,191.5,638.2,191.5z"/>
		<path d="M655.2,191.5c-1.7,0-3.2-0.4-4.5-1.1s-2.2-1.8-2.9-3.2c-0.7-1.4-1-2.9-1-4.7c0-1.8,0.3-3.4,1-4.7c0.7-1.4,1.6-2.4,2.9-3.2
			c1.3-0.8,2.7-1.1,4.5-1.1c2,0,3.6,0.5,5,1.5c1.3,1,2.3,2.3,2.8,4l-3.3,0.9c-0.3-1-0.9-1.9-1.6-2.4c-0.8-0.6-1.7-0.9-2.9-0.9
			c-1.1,0-2,0.2-2.7,0.7s-1.3,1.2-1.6,2.1c-0.4,0.9-0.6,1.9-0.6,3.1c0,1.2,0.2,2.2,0.6,3.1c0.4,0.9,0.9,1.6,1.6,2.1s1.6,0.7,2.7,0.7
			c1.2,0,2.2-0.3,2.9-0.9c0.8-0.6,1.3-1.4,1.6-2.4l3.3,0.9c-0.6,1.7-1.5,3-2.8,4C658.9,191,657.2,191.5,655.2,191.5z"/>
		<path d="M673.1,191.5c-1.7,0-3.2-0.4-4.5-1.1s-2.2-1.8-2.9-3.2c-0.7-1.4-1-2.9-1-4.7c0-1.8,0.3-3.4,1-4.7c0.7-1.4,1.6-2.4,2.9-3.2
			c1.3-0.8,2.7-1.1,4.5-1.1s3.2,0.4,4.5,1.1c1.3,0.8,2.2,1.8,2.9,3.2c0.7,1.4,1,2.9,1,4.7c0,1.8-0.3,3.4-1,4.7
			c-0.7,1.4-1.6,2.4-2.9,3.2S674.8,191.5,673.1,191.5z M673.1,188.5c1.1,0,2-0.2,2.7-0.7s1.3-1.2,1.6-2.1c0.4-0.9,0.5-1.9,0.5-3.1
			c0-1.2-0.2-2.2-0.5-3.1c-0.4-0.9-0.9-1.6-1.6-2.1c-0.7-0.5-1.6-0.7-2.7-0.8c-1.1,0-2,0.2-2.7,0.7s-1.3,1.2-1.6,2.1
			c-0.4,0.9-0.5,1.9-0.5,3.1c0,1.2,0.2,2.2,0.5,3.1c0.4,0.9,0.9,1.6,1.6,2.1C671.1,188.2,672,188.4,673.1,188.5z"/>
		<path d="M683.9,191.2v-17.3h7.3c0.2,0,0.4,0,0.7,0c0.3,0,0.5,0,0.8,0.1c1,0.2,1.9,0.5,2.5,1c0.7,0.5,1.1,1.2,1.5,2
			c0.3,0.8,0.5,1.7,0.5,2.6s-0.2,1.8-0.5,2.6c-0.3,0.8-0.8,1.4-1.5,2c-0.7,0.5-1.5,0.9-2.5,1c-0.2,0-0.5,0.1-0.8,0.1s-0.5,0-0.7,0
			h-4v5.9H683.9z M687.1,182.3h3.9c0.2,0,0.4,0,0.6,0c0.2,0,0.4,0,0.6-0.1c0.4-0.1,0.8-0.3,1-0.6c0.2-0.3,0.4-0.6,0.5-0.9
			c0.1-0.3,0.1-0.7,0.1-1s0-0.6-0.1-1c-0.1-0.3-0.3-0.7-0.5-0.9c-0.2-0.3-0.6-0.5-1-0.6c-0.2,0-0.4-0.1-0.6-0.1c-0.2,0-0.4,0-0.6,0
			h-3.9V182.3z"/>
		<path d="M699.5,191.2v-17.3h11.3v3h-8v3.7h6.6v3h-6.6v4.4h8v3H699.5z"/>
		<path d="M721.4,191.2v-13.7l-3.2,2v-3.6l3.2-1.9h3.3v17.3H721.4z"/>
	</g>
</g>
<g>
	<g>
		<path d="M772.1,317.2c-1.3,0-2.4-0.2-3.5-0.7c-1-0.5-1.9-1.1-2.5-1.9c-0.7-0.8-1.1-1.8-1.3-3l3.4-0.5c0.2,1,0.7,1.8,1.5,2.3
			c0.8,0.5,1.6,0.8,2.6,0.8c0.5,0,1.1-0.1,1.6-0.3s0.9-0.4,1.2-0.7c0.3-0.3,0.5-0.7,0.5-1.2c0-0.2,0-0.3-0.1-0.5
			c-0.1-0.2-0.1-0.3-0.3-0.5s-0.3-0.3-0.5-0.4c-0.2-0.1-0.5-0.2-0.8-0.3l-4.5-1.3c-0.3-0.1-0.7-0.2-1.2-0.4
			c-0.4-0.2-0.9-0.4-1.3-0.8s-0.8-0.8-1-1.3s-0.4-1.2-0.4-2c0-1.2,0.3-2.1,0.9-2.9s1.4-1.3,2.3-1.7c1-0.4,2.1-0.6,3.2-0.6
			c1.2,0,2.3,0.2,3.2,0.6c0.9,0.4,1.7,1,2.4,1.7s1.1,1.7,1.4,2.7l-3.5,0.6c-0.1-0.6-0.4-1-0.7-1.4c-0.3-0.4-0.8-0.7-1.2-0.9
			c-0.5-0.2-1-0.3-1.5-0.3c-0.5,0-1,0.1-1.4,0.2c-0.5,0.2-0.8,0.4-1.1,0.7c-0.3,0.3-0.4,0.6-0.4,1.1c0,0.4,0.1,0.7,0.3,0.9
			c0.2,0.2,0.5,0.4,0.9,0.6c0.4,0.1,0.7,0.3,1.1,0.4l3,0.8c0.4,0.1,0.9,0.3,1.5,0.5c0.5,0.2,1.1,0.5,1.6,0.8s0.9,0.8,1.2,1.4
			c0.3,0.6,0.5,1.3,0.5,2.2c0,0.9-0.2,1.7-0.6,2.4c-0.4,0.7-0.9,1.3-1.6,1.7c-0.7,0.5-1.4,0.8-2.2,1
			C773.8,317.1,773,317.2,772.1,317.2z"/>
		<path d="M789.1,317.2c-1.7,0-3.2-0.4-4.5-1.1s-2.2-1.8-2.9-3.2c-0.7-1.4-1-2.9-1-4.7c0-1.8,0.3-3.4,1-4.7c0.7-1.4,1.6-2.4,2.9-3.2
			c1.3-0.8,2.7-1.1,4.5-1.1c2,0,3.6,0.5,5,1.5c1.3,1,2.3,2.3,2.8,4l-3.3,0.9c-0.3-1-0.9-1.9-1.6-2.4c-0.8-0.6-1.7-0.9-2.9-0.9
			c-1.1,0-2,0.2-2.7,0.7s-1.3,1.2-1.6,2.1c-0.4,0.9-0.6,1.9-0.6,3.1c0,1.2,0.2,2.2,0.6,3.1c0.4,0.9,0.9,1.6,1.6,2.1s1.6,0.7,2.7,0.7
			c1.2,0,2.2-0.3,2.9-0.9c0.8-0.6,1.3-1.4,1.6-2.4l3.3,0.9c-0.6,1.7-1.5,3-2.8,4C792.7,316.7,791.1,317.2,789.1,317.2z"/>
		<path d="M807,317.2c-1.7,0-3.2-0.4-4.5-1.1s-2.2-1.8-2.9-3.2c-0.7-1.4-1-2.9-1-4.7c0-1.8,0.3-3.4,1-4.7c0.7-1.4,1.6-2.4,2.9-3.2
			c1.3-0.8,2.7-1.1,4.5-1.1s3.2,0.4,4.5,1.1c1.3,0.8,2.2,1.8,2.9,3.2c0.7,1.4,1,2.9,1,4.7c0,1.8-0.3,3.4-1,4.7
			c-0.7,1.4-1.6,2.4-2.9,3.2S808.7,317.2,807,317.2z M807,314.1c1.1,0,2-0.2,2.7-0.7s1.3-1.2,1.6-2.1c0.4-0.9,0.5-1.9,0.5-3.1
			c0-1.2-0.2-2.2-0.5-3.1c-0.4-0.9-0.9-1.6-1.6-2.1c-0.7-0.5-1.6-0.7-2.7-0.8c-1.1,0-2,0.2-2.7,0.7s-1.3,1.2-1.6,2.1
			c-0.4,0.9-0.5,1.9-0.5,3.1c0,1.2,0.2,2.2,0.5,3.1c0.4,0.9,0.9,1.6,1.6,2.1C805,313.9,805.9,314.1,807,314.1z"/>
		<path d="M817.8,316.8v-17.3h7.3c0.2,0,0.4,0,0.7,0c0.3,0,0.5,0,0.8,0.1c1,0.2,1.9,0.5,2.5,1c0.7,0.5,1.1,1.2,1.5,2
			c0.3,0.8,0.5,1.7,0.5,2.6s-0.2,1.8-0.5,2.6c-0.3,0.8-0.8,1.4-1.5,2c-0.7,0.5-1.5,0.9-2.5,1c-0.2,0-0.5,0.1-0.8,0.1s-0.5,0-0.7,0
			h-4v5.9H817.8z M821,307.9h3.9c0.2,0,0.4,0,0.6,0c0.2,0,0.4,0,0.6-0.1c0.4-0.1,0.8-0.3,1-0.6c0.2-0.3,0.4-0.6,0.5-0.9
			c0.1-0.3,0.1-0.7,0.1-1s0-0.6-0.1-1c-0.1-0.3-0.3-0.7-0.5-0.9c-0.2-0.3-0.6-0.5-1-0.6c-0.2,0-0.4-0.1-0.6-0.1c-0.2,0-0.4,0-0.6,0
			H821V307.9z"/>
		<path d="M833.4,316.8v-17.3h11.3v3h-8v3.7h6.6v3h-6.6v4.4h8v3H833.4z"/>
		<path d="M851.9,316.8V314l7.2-6.4c0.5-0.5,0.9-0.9,1.2-1.4c0.2-0.4,0.3-0.8,0.3-1.2c0-0.5-0.1-1-0.3-1.4c-0.2-0.4-0.5-0.7-0.9-1
			c-0.4-0.2-0.9-0.4-1.4-0.4c-0.6,0-1,0.1-1.5,0.4c-0.4,0.3-0.7,0.6-1,1s-0.3,0.9-0.3,1.3h-3.4c0-1.2,0.3-2.2,0.8-3.1
			c0.5-0.9,1.2-1.5,2.2-2c0.9-0.5,2-0.7,3.2-0.7c1.1,0,2.1,0.2,3,0.7c0.9,0.5,1.6,1.2,2.1,2.1c0.5,0.9,0.8,1.9,0.8,3.1
			c0,0.9-0.1,1.6-0.4,2.1c-0.2,0.6-0.6,1.1-1.1,1.6c-0.5,0.5-1.1,1-1.7,1.6l-4.7,4.1l-0.3-0.7h8.1v3.1H851.9z"/>
	</g>
</g>
<g>
	<g>
		<path d="M103.8,533.9c-1.3,0-2.4-0.2-3.5-0.7s-1.9-1.1-2.5-1.9c-0.7-0.8-1.1-1.8-1.3-3l3.4-0.5c0.2,1,0.7,1.8,1.5,2.3
			s1.6,0.8,2.6,0.8c0.5,0,1.1-0.1,1.6-0.3s0.9-0.4,1.2-0.7c0.3-0.3,0.5-0.7,0.5-1.2c0-0.2,0-0.3-0.1-0.5c-0.1-0.2-0.1-0.3-0.3-0.5
			c-0.1-0.1-0.3-0.3-0.5-0.4s-0.5-0.2-0.8-0.3l-4.5-1.3c-0.3-0.1-0.7-0.2-1.2-0.4c-0.4-0.2-0.9-0.4-1.3-0.8s-0.8-0.8-1-1.3
			c-0.3-0.5-0.4-1.2-0.4-2c0-1.2,0.3-2.1,0.9-2.9c0.6-0.8,1.4-1.3,2.3-1.7c1-0.4,2.1-0.6,3.2-0.6c1.2,0,2.3,0.2,3.2,0.6
			c0.9,0.4,1.7,1,2.4,1.7s1.1,1.7,1.4,2.7l-3.5,0.6c-0.1-0.6-0.4-1-0.7-1.4c-0.3-0.4-0.8-0.7-1.2-0.9s-1-0.3-1.5-0.3
			c-0.5,0-1,0.1-1.4,0.2c-0.5,0.2-0.8,0.4-1.1,0.7c-0.3,0.3-0.4,0.6-0.4,1.1c0,0.4,0.1,0.7,0.3,0.9s0.5,0.4,0.9,0.6
			c0.4,0.1,0.7,0.3,1.1,0.4l3,0.8c0.4,0.1,0.9,0.3,1.5,0.5s1.1,0.5,1.6,0.8c0.5,0.3,0.9,0.8,1.2,1.4c0.3,0.6,0.5,1.3,0.5,2.2
			c0,0.9-0.2,1.7-0.6,2.4c-0.4,0.7-0.9,1.3-1.6,1.7s-1.4,0.8-2.2,1C105.6,533.8,104.7,533.9,103.8,533.9z"/>
		<path d="M120.8,533.9c-1.7,0-3.2-0.4-4.5-1.1s-2.2-1.8-2.9-3.2c-0.7-1.4-1-2.9-1-4.7c0-1.8,0.3-3.4,1-4.7c0.7-1.4,1.6-2.4,2.9-3.2
			c1.3-0.8,2.7-1.1,4.5-1.1c2,0,3.7,0.5,5,1.5c1.3,1,2.3,2.3,2.8,4l-3.3,0.9c-0.3-1-0.9-1.9-1.6-2.4c-0.8-0.6-1.7-0.9-2.9-0.9
			c-1.1,0-2,0.2-2.7,0.7c-0.7,0.5-1.3,1.2-1.6,2.1c-0.4,0.9-0.6,1.9-0.6,3.1c0,1.2,0.2,2.2,0.6,3.1c0.4,0.9,0.9,1.6,1.6,2.1
			c0.7,0.5,1.6,0.7,2.7,0.7c1.2,0,2.2-0.3,2.9-0.9c0.8-0.6,1.3-1.4,1.6-2.4l3.3,0.9c-0.6,1.7-1.5,3-2.8,4S122.8,533.9,120.8,533.9z"
			/>
		<path d="M138.7,533.9c-1.7,0-3.2-0.4-4.5-1.1s-2.2-1.8-2.9-3.2c-0.7-1.4-1-2.9-1-4.7c0-1.8,0.3-3.4,1-4.7c0.7-1.4,1.6-2.4,2.9-3.2
			c1.3-0.8,2.7-1.1,4.5-1.1c1.7,0,3.2,0.4,4.5,1.1c1.3,0.8,2.2,1.8,2.9,3.2c0.7,1.4,1,2.9,1,4.7c0,1.8-0.3,3.4-1,4.7
			c-0.7,1.4-1.6,2.4-2.9,3.2S140.5,533.9,138.7,533.9z M138.7,530.8c1.1,0,2-0.2,2.7-0.7c0.7-0.5,1.3-1.2,1.6-2.1
			c0.4-0.9,0.5-1.9,0.5-3.1c0-1.2-0.2-2.2-0.5-3.1c-0.4-0.9-0.9-1.6-1.6-2.1c-0.7-0.5-1.6-0.7-2.7-0.8c-1.1,0-2,0.2-2.7,0.7
			c-0.7,0.5-1.3,1.2-1.6,2.1c-0.4,0.9-0.5,1.9-0.5,3.1c0,1.2,0.2,2.2,0.5,3.1c0.4,0.9,0.9,1.6,1.6,2.1
			C136.7,530.6,137.6,530.8,138.7,530.8z"/>
		<path d="M149.5,533.6v-17.3h7.3c0.2,0,0.4,0,0.7,0c0.3,0,0.5,0,0.8,0.1c1,0.2,1.9,0.5,2.5,1c0.7,0.5,1.1,1.2,1.5,2
			c0.3,0.8,0.5,1.7,0.5,2.6s-0.2,1.8-0.5,2.6c-0.3,0.8-0.8,1.4-1.5,2c-0.7,0.5-1.5,0.9-2.5,1c-0.2,0-0.5,0.1-0.8,0.1
			c-0.3,0-0.5,0-0.7,0h-4v5.9H149.5z M152.8,524.6h3.9c0.2,0,0.4,0,0.6,0c0.2,0,0.4,0,0.6-0.1c0.4-0.1,0.8-0.3,1-0.6
			s0.4-0.6,0.5-0.9s0.1-0.7,0.1-1c0-0.3,0-0.6-0.1-1c-0.1-0.3-0.3-0.7-0.5-0.9c-0.2-0.3-0.6-0.5-1-0.6c-0.2,0-0.4-0.1-0.6-0.1
			c-0.2,0-0.4,0-0.6,0h-3.9V524.6z"/>
		<path d="M165.1,533.6v-17.3h11.3v3h-8v3.7h6.6v3h-6.6v4.4h8v3H165.1z"/>
		<path d="M189.1,533.9c-0.9,0-1.7-0.2-2.5-0.5c-0.8-0.3-1.5-0.8-2-1.5c-0.6-0.6-1-1.4-1.2-2.2l3.2-0.8c0.2,0.6,0.5,1.1,1,1.5
			c0.5,0.3,1,0.5,1.6,0.5c0.5,0,1-0.1,1.4-0.4s0.7-0.6,1-1c0.2-0.4,0.4-0.9,0.4-1.4c0-0.7-0.3-1.4-0.8-1.9s-1.2-0.8-2-0.8
			c-0.2,0-0.5,0-0.7,0.1c-0.2,0.1-0.4,0.2-0.6,0.3l-1.5-2.6l5.5-4.6l0.2,0.7h-8v-3.1h10.8v3.1l-4.3,4.1l0-0.9c1,0.2,1.8,0.5,2.5,1
			c0.7,0.5,1.2,1.2,1.6,2c0.4,0.8,0.5,1.6,0.5,2.5c0,1.1-0.3,2.1-0.8,2.9c-0.6,0.9-1.3,1.6-2.2,2.1S190.2,533.9,189.1,533.9z"/>
	</g>
</g>
</svg>
