<?xml version="1.0" encoding="utf-8"?>
<!-- Generator: Adobe Illustrator 24.0.2, SVG Export Plug-In . SVG Version: 6.00 Build 0)  -->
<svg version="1.1" id="Layer_1" xmlns="http://www.w3.org/2000/svg" xmlns:xlink="http://www.w3.org/1999/xlink" x="0px" y="0px"
	 viewBox="0 0 400 400" style="enable-background:new 0 0 400 400;" xml:space="preserve">
<style type="text/css">
	.st0{fill:#FCF8EF;}
	.st1{fill:#95BF47;}
	.st2{fill:#5E8E3E;}
	.st3{fill:#FFFFFF;}
</style>
<rect class="st0" width="400" height="400"/>
<g>
	<path class="st1" d="M278.7,116.8c-0.2-1.2-1.2-1.9-2.1-1.9c-1,0-17.8-0.4-17.8-0.4s-14.2-13.8-15.5-15.2c-1.3-1.3-4.2-1-5.2-0.6
		c0,0-2.7,0.8-7.1,2.1c-0.8-2.5-1.9-5.4-3.5-8.4c-5-9.6-12.5-14.8-21.3-14.8l0,0c-0.6,0-1.2,0-1.9,0.2c-0.2-0.4-0.6-0.6-0.8-1
		c-3.8-4.2-8.8-6.1-14.8-5.9c-11.5,0.4-23,8.6-32.2,23.4c-6.5,10.4-11.5,23.4-13,33.6c-13.2,4-22.4,6.9-22.6,7.1
		c-6.7,2.1-6.9,2.3-7.7,8.6c-0.6,4.8-18.2,140-18.2,140L241.5,309l63.5-15.7C304.8,293.1,278.9,118,278.7,116.8z M223.7,103.2
		c-3.5,1-7.3,2.3-11.3,3.5c0-5.8-0.8-14-3.5-20.9C217.5,87.5,221.8,97.3,223.7,103.2z M204.5,109.2c-7.7,2.3-16.1,5-24.5,7.5
		c2.3-9,6.9-18,12.3-24c2.1-2.1,5-4.6,8.2-6.1C203.9,93.3,204.7,102.7,204.5,109.2z M189,78.7c2.7,0,5,0.6,6.9,1.7
		c-3.1,1.7-6.1,4-9,7.1c-7.3,7.9-12.8,20.1-15.2,31.8c-6.9,2.1-13.8,4.2-20.1,6.1C155.6,107.1,171.1,79.3,189,78.7z"/>
	<g>
		<path class="st2" d="M276.6,114.9c-1,0-17.8-0.4-17.8-0.4s-14.2-13.8-15.5-15.2c-0.6-0.6-1.2-0.8-1.9-1v210.4l63.5-15.7
			c0,0-25.9-175.1-26.1-176.4C278.5,115.7,277.6,114.9,276.6,114.9z"/>
		<path class="st3" d="M206,147.5l-7.3,27.6c0,0-8.2-3.8-18-3.1c-14.4,1-14.4,10-14.4,12.3c0.8,12.3,33.2,15,35.1,43.9
			c1.3,22.8-12.1,38.4-31.5,39.5c-23.4,1.5-36.2-12.3-36.2-12.3l5-21.1c0,0,12.8,9.8,23.2,9c6.7-0.4,9.2-5.9,9-9.8
			c-1-16.1-27.4-15.2-29.2-41.6c-1.3-22.2,13.2-44.9,45.5-46.8C199.7,144.3,206,147.5,206,147.5z"/>
	</g>
</g>
</svg>
