<?xml version="1.0" encoding="utf-8"?>
<!-- Generator: Adobe Illustrator 24.0.2, SVG Export Plug-In . SVG Version: 6.00 Build 0)  -->
<svg version="1.1" id="Layer_1" xmlns="http://www.w3.org/2000/svg" xmlns:xlink="http://www.w3.org/1999/xlink" x="0px" y="0px"
	 viewBox="0 0 400 400" style="enable-background:new 0 0 400 400;" xml:space="preserve">
<style type="text/css">
	.st0{fill:#00643C;}
	.st1{fill:#FFFFFF;}
</style>
<g>
	<path class="st0" d="M40,40v319.9h160c-9.8,0-19.3-0.9-28.6-2.6c-2.9-22.6,15.2-39,15.2-53.7c0-16.3-20.9-30.9-20.9-46.9
		c0-15.1,15-19.9,17-35.4c0.2-2,2-3.6,4.3-3.2c3.1,0.6,6.9,2.6,13,2.6c6.1,0,10-2,13-2.6c2.3-0.4,4.1,1,4.3,3.2
		c2,15.5,17,20.3,17,35.4c0,15.9-20.9,30.6-20.9,46.9c0,14.9,18.1,31.3,15.3,53.7c-9.4,1.7-19,2.6-28.9,2.6h160V40H40z M359.3,200.8
		c0,3-0.1,5.9-0.2,8.8c-20.6,1.9-28.5-15-47.4-12.7c-1.9-4.6-3.9-9-6.3-13.4c23.8-4.2,32.1,15.4,53.9,12.9
		C359.3,197.9,359.3,199.3,359.3,200.8z M40.8,200.8c0-1.5,0-3,0.1-4.6c22,2.7,30.3-17,54.2-12.9c-2.4,4.3-4.6,8.8-6.3,13.4
		c-19-2.2-27,14.8-47.6,12.9C40.9,206.7,40.8,203.7,40.8,200.8z M355.6,183.5c-17.8,5.3-32.9-17.5-55.9-9.6
		c-8.3-12.2-18.7-23-30.9-31.5c11.8-4.7,26.2-3.6,38.3,4.2c1.9-11.4,8.1-21.4,16.9-27.5c1-0.8,2.4,0,2.3,1.4
		C324.3,144.5,338.4,165.2,355.6,183.5z M73.6,120.5c0-1.4,1.2-2.2,2.4-1.4c8.8,6.1,15,16.2,16.9,27.5c12.2-7.8,26.6-9,38.3-4.2
		c-12.2,8.5-22.6,19.3-31.1,31.5c-22.9-7.9-38,15-55.9,9.6C61.4,165.2,75.4,144.5,73.6,120.5z M84.7,208.4c-1,3.9-2,7.9-2.7,12
		c-15.2-0.2-21.4,14-38.1,12.2c-0.8-3.8-1.4-7.8-1.9-11.7C59.8,223.6,66.3,207.6,84.7,208.4z M80.6,233.8c0,2.3-0.2,4.5-0.2,6.7
		c0,1.4,0,2.6,0,3.8c-13-0.2-17.4,11.9-29.8,11.6c-1.3-3.4-2.4-6.9-3.4-10.3C60.3,246.5,65.1,233.4,80.6,233.8z M81.5,257.4
		c0.4,3,1,5.9,1.6,8.9c-11.8-1-14.5,9.8-22.8,11c-1.6-2.9-3-5.8-4.5-8.7C64.6,267.8,67.8,256.4,81.5,257.4z M86.1,277.5
		c-1-3.1-1.8-6.2-2.6-9.3c8.6,0,18.5-3.2,26.7-10.8c-2.7-15.2,20.9-30.6,20.9-41.7c0-12.2-6.1-18.7-6.1-35c0-12,5.8-25.2,14.7-34.1
		c1.8-1.8,3.5-3.2,5.5-4.5c-8.2,10.1-14.4,22-14.4,35.8c0,15.4,7.1,23.4,7.1,37.6s-20.7,26.4-20.7,40.9c0,5.8,1.8,11.4,7.8,22.4
		c-9.3,9.2-21.4,14.3-29.3,14.3c-2.6,0-3.9-0.6-4.9-2.7c-0.6-1.8-1.5-3.5-2.2-5.3c-8.2,0.4-11.9,7.4-16.4,10.6
		c-1.8-2.3-3.4-4.7-5-7.1C72.2,285.9,76.6,278.1,86.1,277.5z M93.4,295.4c1,2.2,2.3,4.3,3.5,6.3c-5,1.3-8.6,6.2-11.3,9.7
		c-1.8-1.8-3.5-3.8-5.2-5.7C83.5,302.2,87.5,296.9,93.4,295.4z M103.4,311.5c1.2,1.9,2.7,3.5,4.1,5.3c-2.7,1.8-5.3,5.3-7,8.1
		c-1.8-1.4-3.6-3-5.4-4.6C97.1,317.2,99.9,313.5,103.4,311.5z M129.9,287.9c2,3.4,4.3,7.5,4.3,12.6c0,13.3-13.8,23.9-15.7,37
		c-2.2-1.4-4.5-2.8-6.7-4.2C114.6,317.6,135.8,306.5,129.9,287.9z M143.7,300.2c0-13.8-17.9-27.4-17.9-43.5s20.6-27.4,20.6-41.5
		s-8.8-22.2-8.8-40.4c0-13.2,6.3-26.7,16.1-35.3c1.8-1.5,3.5-2.7,5.5-3.8c-9.2,11-14.6,21-14.6,36.2c0,17.1,10.1,26.6,10.1,43.3
		s-20.2,25.9-20.2,41.5s18.9,28.7,18.9,44.7c0,14.2-15.9,28.6-16.8,45.3c-3-1.3-5.8-2.6-8.7-4.1C129,328.1,143.7,312.3,143.7,300.2z
		 M146.5,133.3c-1.2,0.6-2.3,0.2-2.8-1c-4.7-10.4-10.9-20.1-17.9-29.1c11.8,0.8,22,4.9,30.2,11.6c-3.5-9.8-7.9-18.6-13.6-27
		c15,1.6,27.4,7.1,36.6,16.5l7.1-18.7l-15.8-14l21.2-1.5l8.4-19.7l8.5,19.7l21.2,1.5l-15.8,14l7.1,18.7c9.2-9.4,21.6-14.8,36.6-16.5
		c-5.7,8.3-10.1,17-13.6,27c8.2-6.7,18.4-10.8,30.2-11.6c-7,9-13.4,18.7-17.9,29.1c-0.6,1.2-1.6,1.6-2.8,1
		c-16.2-8.1-34.2-12.6-53.4-12.6C180.6,120.7,162.6,125.3,146.5,133.3z M246.7,139.4c9.7,8.6,16.1,22,16.1,35.3
		c0,18.2-8.8,26.3-8.8,40.4c0,14.2,20.6,25.4,20.6,41.5c0,16.2-17.9,29.9-17.9,43.5c0,11.8,14.6,27.7,15.8,42.3
		c-2.9,1.4-5.8,2.8-8.7,4.2c-1-16.7-16.8-31-16.8-45.2c0-16.1,18.9-29.3,18.9-44.7s-20.2-24.8-20.2-41.5s10.1-26.2,10.1-43.3
		c0-15.2-5.4-25.2-14.6-36.2C243.3,136.8,244.9,138,246.7,139.4z M266.2,300.5c0-5,2.3-9.2,4.3-12.6c-5.8,18.4,15.2,29.4,18,45.1
		c-2.2,1.5-4.5,3-6.8,4.3C280,324.4,266.2,313.7,266.2,300.5z M293.1,316.8c1.4-1.8,2.7-3.5,4.1-5.3c3.2,2.1,6.2,5.7,8.2,8.6
		c-1.8,1.5-3.5,3-5.4,4.6C298.2,321.8,295.9,318.7,293.1,316.8z M303.6,301.7c1.2-2.2,2.4-4.2,3.5-6.3c5.8,1.5,9.8,6.6,12.8,10.2
		c-1.7,1.9-3.4,3.8-5.2,5.7C312,307.7,308.5,303.1,303.6,301.7z M311.8,285.2c-0.6,1.8-1.4,3.5-2.2,5.3c-1,1.9-2.3,2.7-4.9,2.7
		c-7.8,0-19.9-5-29.3-14.3c5.9-11,7.8-16.6,7.8-22.4c0-14.6-20.7-26.8-20.7-40.9s7.1-22.2,7.1-37.6c0-13.9-6.3-25.8-14.4-35.8
		c2,1.4,3.8,2.7,5.5,4.5c8.8,8.9,14.7,22,14.7,34.1c0,16.3-6.1,23-6.1,35c0,11.2,23.6,26.6,20.9,41.7c8.2,7.4,17.9,10.8,26.6,10.8
		c-0.6,3.1-1.6,6.2-2.6,9.3c9.1,0.5,13.6,8,18.5,11c-1.6,2.4-3.3,4.8-5,7.1C323.6,292.3,319.7,285.5,311.8,285.2z M317.3,266.3
		c0.6-3,1.2-5.9,1.6-8.9c13.4-0.9,16.6,10,25.2,11.1c-1.4,3-2.9,5.8-4.5,8.7C331.8,275.8,329,265.5,317.3,266.3z M319.9,244.3
		c0.2-1.2,0.2-2.6,0.2-3.8c0-2.3,0-4.5-0.2-6.7c15.3-0.2,20.2,12.5,33,11.8c-1,3.5-2.2,7-3.4,10.3
		C337.4,255.9,333,244.2,319.9,244.3z M318.4,220.4c-0.6-4.1-1.6-8.1-2.7-12c18.3-0.6,24.9,14.8,42.3,12.5
		c-0.5,3.9-1.1,7.8-1.9,11.7C339.7,234.2,333.5,220.4,318.4,220.4z M155.5,256.7c0,16.3,20.2,29.4,20.2,46.8
		c0,15.8-18.2,33.1-15.9,51.3c-4.2-1.1-8.3-2.3-12.3-3.8c-1.3-17.2,16.6-34.7,16.6-48.7c0-15.5-19.5-29-19.5-45.7
		c0-16.7,19.8-24.6,19.8-41.7s-12.2-26.8-12.2-45.8c0-14.8,7.4-28.2,18.1-36.4c0.2-0.2,0.4-0.4,0.6-0.6c1-0.6,1.8,0.2,1,1
		c-7.5,9.4-11.6,19-11.6,33.1c0,17.4,14,31.5,14,48.4C174.4,234.8,155.5,240.3,155.5,256.7z M199.9,211.2
		c-16.2,0-31.4-22.8-31.4-39.4c0-3.8,0.6-7,3.8-7c2.7,0,3.1,2,7.3,2c4.2,0,6.1-1.8,8.5-1.8s3.4,1.9,5.8,2.4
		c1.6-3.8,1.5-10.5,0.2-15.1c-3.1-3.8-8.5-6.1-14.6-6.1c-3.4,0-6.3,0.6-9,1.8c-1,0.4-1.4-0.2-1-1c3.2-10.9,15.8-19.3,30.6-19.3
		c14.8,0,27.4,8.3,30.6,19.4c0.2,0.8-0.2,1.4-1,1c-2.7-1.2-5.8-1.8-9-1.8c-6.1,0-11.4,2.2-14.6,6.1c-1.9,6.3-1.8,13.6,0.6,19.1
		c3.5-0.4,3.2-6.6,6.2-6.6c2.4,0,3.5,1.8,7.7,1.8c3.8,0,5.4-1,7-2.3c3.2,0.4,4.1,3.5,4.1,7.3C231.3,188.5,216.1,211.2,199.9,211.2z
		 M169.6,155.2c0-2.2,2.2-3.6,6.6-3.6c6.1,0,12.2,3.8,11.8,7.1c-6.7-2.4-13.4-2.6-16.5,0.6C170.1,157.9,169.7,156.7,169.6,155.2z
		 M230.2,155.3c0,1.4-0.4,2.6-1.9,3.9c-2.8-3.1-8.5-3-15-0.8c-0.4-0.6-0.4-1.9-0.2-2.7c2.7-3,6.7-4.1,10.4-4.1
		C228,151.7,230.2,153.2,230.2,155.3z M224.6,303.5c0-17.4,20.2-30.5,20.2-46.8s-18.9-22-18.9-41.9c0-16.9,14-31,14-48.4
		c0-14.2-4.1-23.8-11.6-33.1c-0.8-1,0.2-1.9,1-1c0.2,0.2,0.4,0.4,0.6,0.6c10.8,8.2,18.1,21.6,18.1,36.4c0,19-12.2,28.6-12.2,45.8
		s19.8,25,19.8,41.7s-19.5,30.2-19.5,45.7c0,14,17.9,31.5,16.7,48.5c-4.1,1.4-8.2,2.7-12.3,3.8C242.9,336.6,224.6,319.1,224.6,303.5
		z"/>
	<path class="st0" d="M199.9,183.8c3.2,0,4.6-1.6,7.4-2c0.4-0.4,0.6-0.8,0.6-1.2c-0.6-1-3-1.9-4.3-1.9c-1.2-0.2-1.6,0.6-3.6,0.6
		c-1.9,0-2.4-0.6-3.6-0.6s-3.8,1-4.3,1.9c0,0.4,0.2,0.8,0.6,1.2C195.3,182.1,196.7,183.8,199.9,183.8z"/>
	<path class="st0" d="M216.1,109.9c0.8,0.2,1-0.6,0.6-1c-0.5-0.4-16.6-12.6-16.6-12.6s-16.1,12.2-16.6,12.6s-0.2,1.2,0.6,1
		c1.4-0.2,8.1-1.4,16.1-1.4S214.8,109.7,216.1,109.9z"/>
	<path class="st0" d="M211.5,189.2c0,0-4.5,1-11.6,1s-11.6-1-11.6-1s-0.8,0.2-1,1c3.4,2.6,5.7,8.5,12.6,8.5c7,0,9.3-5.9,12.6-8.5
		C212.3,189.4,211.5,189.2,211.5,189.2z"/>
</g>
<path class="st1" d="M0,0v400h400V0H0z M200,360c-88.4,0-160-71.6-160-160S111.6,40,200,40s160,71.6,160,160S288.4,360,200,360z"/>
</svg>
