<?xml version="1.0" encoding="utf-8"?>
<!-- Generator: Adobe Illustrator 24.0.2, SVG Export Plug-In . SVG Version: 6.00 Build 0)  -->
<svg version="1.1" id="Layer_1" xmlns="http://www.w3.org/2000/svg" xmlns:xlink="http://www.w3.org/1999/xlink" x="0px" y="0px"
	 viewBox="0 0 400 400" style="enable-background:new 0 0 400 400;" xml:space="preserve">
<style type="text/css">
	.st0{fill:#FFFFFF;}
</style>
<rect width="400" height="400"/>
<g>
	<path class="st0" d="M76.1,220.8c1.2,3.1,2.8,5.8,4.9,8.1c2.1,2.2,4.6,3.9,7.4,5.1c2.9,1.2,6,1.8,9.4,1.8c3.3,0,6.3-0.6,9.2-1.8
		c2.9-1.2,5.4-3,7.5-5.2c2.1-2.2,3.8-4.9,5-8c1.2-3.1,1.8-6.6,1.8-10.4v-59h14.3V247h-14.2v-8.9c-3.2,3.4-6.9,6-11.3,7.8
		c-4.3,1.8-9,2.7-14,2.7c-5.1,0-9.9-0.9-14.3-2.7c-4.4-1.8-8.2-4.3-11.5-7.6s-5.8-7.2-7.6-11.8c-1.9-4.6-2.8-9.7-2.8-15.4v-59.8
		h14.3v59C74.3,214.2,74.9,217.7,76.1,220.8z"/>
	<path class="st0" d="M160.3,151.4v34.8c3.2-3.2,6.9-5.7,11.1-7.6s8.7-2.8,13.7-2.8c5.1,0,9.9,1,14.3,2.9c4.5,1.9,8.3,4.5,11.6,7.8
		s5.9,7.1,7.8,11.6c1.9,4.5,2.9,9.2,2.9,14.2c0,5-1,9.7-2.9,14.1c-1.9,4.4-4.5,8.3-7.8,11.5c-3.3,3.3-7.1,5.9-11.6,7.8
		c-4.5,1.9-9.2,2.9-14.3,2.9c-4.9,0-9.5-0.9-13.7-2.8c-4.2-1.9-7.9-4.4-11.1-7.6v8.7h-13.7v-95.6H160.3z M161.9,221.7
		c1.2,2.9,2.9,5.5,5.1,7.6s4.7,3.9,7.6,5.2c2.9,1.3,6.1,1.9,9.4,1.9c3.3,0,6.4-0.6,9.3-1.9c2.9-1.3,5.4-3,7.6-5.2
		c2.1-2.2,3.8-4.7,5.1-7.6c1.3-2.9,1.9-6.1,1.9-9.4c0-3.4-0.6-6.5-1.9-9.5c-1.3-3-3-5.5-5.1-7.7c-2.1-2.2-4.7-3.9-7.6-5.1
		s-6-1.8-9.3-1.8c-3.3,0-6.4,0.6-9.3,1.8s-5.5,2.9-7.6,5.1c-2.2,2.2-3.9,4.8-5.2,7.7c-1.3,3-1.9,6.1-1.9,9.5
		C160.1,215.7,160.7,218.8,161.9,221.7z"/>
	<path class="st0" d="M229.4,198.2c1.8-4.4,4.3-8.2,7.5-11.5c3.2-3.3,7-5.9,11.3-7.8c4.4-1.9,9.1-2.9,14.2-2.9c5,0,9.6,0.9,13.9,2.7
		c4.3,1.8,8,4.3,11.1,7.6c3.1,3.2,5.5,7.1,7.2,11.5c1.7,4.4,2.6,9.2,2.6,14.4v4.5h-56.7c0.5,2.8,1.4,5.4,2.7,7.8
		c1.4,2.4,3.1,4.5,5.1,6.3c2,1.8,4.4,3.2,7,4.2c2.6,1,5.3,1.5,8.3,1.5c8.3,0,15-3.4,20.1-10.2l10,7.4c-3.5,4.6-7.7,8.3-12.8,10.9
		c-5.1,2.6-10.8,4-17.2,4c-5.2,0-10-0.9-14.5-2.7c-4.5-1.8-8.4-4.4-11.7-7.6c-3.3-3.3-5.9-7.1-7.8-11.5c-1.9-4.4-2.9-9.2-2.9-14.4
		C226.7,207.2,227.6,202.6,229.4,198.2z M248.6,192.8c-3.9,3.2-6.4,7.5-7.7,12.9h42.5c-1.2-5.4-3.7-9.7-7.6-12.9
		c-3.9-3.2-8.4-4.8-13.6-4.8C257,188,252.5,189.6,248.6,192.8z"/>
	<path class="st0" d="M323.1,194.4c-2.9,3.2-4.4,7.5-4.4,13V247h-13.8v-69.6h13.7v8.6c1.7-2.8,4-5.1,6.8-6.7
		c2.8-1.6,6.1-2.5,9.9-2.5h4.8v12.8h-5.7C329.7,189.6,326,191.2,323.1,194.4z"/>
</g>
</svg>
